<svg width="175" height="102" viewBox="0 0 175 102" fill="none" xmlns="http://www.w3.org/2000/svg">
<g style="mix-blend-mode:multiply" opacity="0.3">
<g style="mix-blend-mode:multiply">
<path d="M0 0H175V101.033H0V0Z" fill="white"/>
</g>
<g style="mix-blend-mode:multiply">
<path d="M87.0779 90.5484C46.2993 90.1214 13.4295 71.8515 13.6611 49.7415C13.8926 27.6315 47.1378 10.054 87.9164 10.4811C128.695 10.9081 161.565 29.178 161.333 51.288C161.102 73.398 127.856 90.9755 87.0779 90.5484Z" fill="white"/>
</g>
<g style="mix-blend-mode:multiply">
<path d="M87.0805 90.2775C46.5763 89.8533 13.9275 71.7071 14.1575 49.7467C14.3875 27.7863 47.4091 10.3278 87.9133 10.752C128.418 11.1762 161.066 29.3224 160.836 51.2828C160.606 73.2431 127.585 90.7017 87.0805 90.2775Z" fill="white"/>
</g>
<g style="mix-blend-mode:multiply">
<path d="M87.0831 90.0156C46.8483 89.5943 14.4167 71.5675 14.6451 49.7518C14.8736 27.9361 47.6756 10.5925 87.9105 11.0139C128.145 11.4352 160.577 29.462 160.349 51.2777C160.12 73.0934 127.318 90.437 87.0831 90.0156Z" fill="white"/>
</g>
<g style="mix-blend-mode:multiply">
<path d="M87.1213 89.8895C47.1585 89.4899 14.9379 71.6012 15.1546 49.9339C15.3713 28.2666 47.9431 11.0258 87.9059 11.4254C127.869 11.825 160.089 29.7138 159.873 51.3811C159.656 73.0483 127.084 90.2892 87.1213 89.8895Z" fill="white"/>
</g>
<g style="mix-blend-mode:multiply">
<path d="M87.0889 89.4828C47.3977 89.0671 15.4043 71.2836 15.6297 49.7621C15.855 28.2407 48.2138 11.1311 87.9051 11.5467C127.596 11.9624 159.59 29.7459 159.364 51.2674C159.139 72.7888 126.78 89.8985 87.0889 89.4828Z" fill="white"/>
</g>
<g style="mix-blend-mode:multiply">
<path d="M87.0918 89.2118C47.6748 88.799 15.9026 71.1391 16.1264 49.7673C16.3502 28.3955 48.4853 11.4048 87.9023 11.8176C127.319 12.2304 159.092 29.8903 158.868 51.2621C158.644 72.634 126.509 89.6246 87.0918 89.2118Z" fill="white"/>
</g>
<g style="mix-blend-mode:multiply">
<path d="M87.0944 88.95C47.9468 88.54 16.3917 70.9996 16.614 49.7724C16.8363 28.5453 48.7519 11.6696 87.8995 12.0795C127.047 12.4895 158.602 30.0299 158.38 51.2571C158.158 72.4843 126.242 89.3599 87.0944 88.95Z" fill="white"/>
</g>
<g style="mix-blend-mode:multiply">
<path d="M87.0973 88.6791C48.224 88.272 16.89 70.8552 17.1107 49.7777C17.3314 28.7001 49.0234 11.9434 87.8966 12.3505C126.77 12.7576 158.104 30.1743 157.883 51.2519C157.663 72.3294 125.971 89.0862 87.0973 88.6791Z" fill="white"/>
</g>
<g style="mix-blend-mode:multiply">
<path d="M87.1 88.4172C48.496 88.0129 17.3791 70.7157 17.5983 49.7827C17.8175 28.8498 49.2899 12.2081 87.8938 12.6124C126.498 13.0166 157.615 30.3138 157.396 51.2468C157.176 72.1797 125.704 88.8214 87.1 88.4172Z" fill="white"/>
</g>
<g style="mix-blend-mode:multiply">
<path d="M87.1028 88.1463C48.7732 87.7449 17.8774 70.5713 18.095 49.788C18.3127 29.0047 49.5614 12.4819 87.891 12.8833C126.221 13.2847 157.117 30.4583 156.899 51.2416C156.681 72.0249 125.432 88.5477 87.1028 88.1463Z" fill="white"/>
</g>
<g style="mix-blend-mode:multiply">
<path d="M87.1057 87.8753C49.0454 87.4767 18.3666 70.4267 18.5827 49.7931C18.7988 29.1594 49.8279 12.7556 87.8882 13.1542C125.949 13.5528 156.627 30.6028 156.411 51.2365C156.195 71.8701 125.166 88.2739 87.1057 87.8753Z" fill="white"/>
</g>
<g style="mix-blend-mode:multiply">
<path d="M87.1086 87.6134C49.3226 87.2177 18.865 70.2873 19.0796 49.7983C19.2941 29.3093 50.0997 13.0204 87.8856 13.4161C125.672 13.8118 156.129 30.7422 155.915 51.2313C155.7 71.7203 124.895 88.0091 87.1086 87.6134Z" fill="#FEFFFF"/>
</g>
<g style="mix-blend-mode:multiply">
<path d="M87.1112 87.3425C49.5946 86.9496 19.354 70.1428 19.567 49.8034C19.78 29.464 50.3659 13.2941 87.8826 13.687C125.399 14.0799 155.64 30.8868 155.427 51.2261C155.214 71.5655 124.628 87.7354 87.1112 87.3425Z" fill="#FEFFFF"/>
</g>
<g style="mix-blend-mode:multiply">
<path d="M87.1139 87.0806C49.8716 86.6906 19.8521 70.0033 20.0636 49.8086C20.2751 29.6138 50.6374 13.5589 87.8798 13.9489C125.122 14.339 155.142 31.0262 154.93 51.221C154.719 71.4157 124.356 87.4706 87.1139 87.0806Z" fill="#FEFEFF"/>
</g>
<g style="mix-blend-mode:multiply">
<path d="M87.1168 86.8097C50.1438 86.4225 20.3414 69.8588 20.5513 49.8137C20.7612 29.7686 50.9039 13.8327 87.8769 14.2199C124.85 14.607 154.652 31.1707 154.442 51.2158C154.232 71.261 124.09 87.1969 87.1168 86.8097Z" fill="#FEFEFF"/>
</g>
<g style="mix-blend-mode:multiply">
<path d="M87.1197 86.5478C50.421 86.1635 20.8398 69.7194 21.0482 49.8189C21.2566 29.9184 51.1757 14.0974 87.8744 14.4818C124.573 14.8661 154.154 31.3102 153.946 51.2107C153.737 71.1111 123.818 86.9321 87.1197 86.5478Z" fill="#FEFEFF"/>
</g>
<g style="mix-blend-mode:multiply">
<path d="M87.1225 86.2768C50.6932 85.8953 21.3291 69.5748 21.5359 49.824C21.7427 30.0731 51.4422 14.3712 87.8716 14.7527C124.301 15.1342 153.665 31.4547 153.458 51.2055C153.251 70.9564 123.552 86.6583 87.1225 86.2768Z" fill="#FEFEFF"/>
</g>
<g style="mix-blend-mode:multiply">
<path d="M87.1252 86.015C50.9702 85.6363 21.8272 69.4354 22.0325 49.8292C22.2378 30.223 51.7137 14.636 87.8687 15.0146C124.024 15.3932 153.167 31.5941 152.961 51.2003C152.756 70.8066 123.28 86.3936 87.1252 86.015Z" fill="#FEFEFF"/>
</g>
<g style="mix-blend-mode:multiply">
<path d="M87.1281 85.744C51.2423 85.3682 22.3164 69.2909 22.5202 49.8343C22.7239 30.3777 51.9802 14.9097 87.8659 15.2855C123.752 15.6613 152.678 31.7386 152.474 51.1952C152.27 70.6518 123.014 86.1198 87.1281 85.744Z" fill="#FDFEFE"/>
</g>
<g style="mix-blend-mode:multiply">
<path d="M87.1309 85.4731C51.5195 85.1001 22.8147 69.1464 23.0169 49.8395C23.2191 30.5325 52.2517 15.1834 87.8631 15.5564C123.475 15.9293 152.179 31.883 151.977 51.19C151.775 70.497 122.742 85.846 87.1309 85.4731Z" fill="#FDFEFE"/>
</g>
<g style="mix-blend-mode:multiply">
<path d="M87.1336 85.2112C51.7915 84.8411 23.3038 69.0069 23.5045 49.8446C23.7052 30.6823 52.5182 15.4482 87.8603 15.8183C123.202 16.1884 151.69 32.0226 151.489 51.1849C151.289 70.3472 122.476 85.5813 87.1336 85.2112Z" fill="#FDFEFE"/>
</g>
<g style="mix-blend-mode:multiply">
<path d="M87.1365 84.9403C52.0687 84.573 23.8021 68.8625 24.0012 49.8498C24.2003 30.8371 52.7897 15.722 87.8575 16.0892C122.925 16.4564 151.192 32.167 150.993 51.1797C150.794 70.1924 122.204 85.3075 87.1365 84.9403Z" fill="#FDFDFE"/>
</g>
<g style="mix-blend-mode:multiply">
<path d="M87.1391 84.6784C52.3457 84.314 24.3002 68.7231 24.4978 49.855C24.6954 30.9869 53.0612 15.9867 87.8547 16.3511C122.648 16.7155 150.694 32.3064 150.496 51.1745C150.298 70.0426 121.933 85.0428 87.1391 84.6784Z" fill="#FCFDFE"/>
</g>
<g style="mix-blend-mode:multiply">
<path d="M87.142 84.4074C52.6179 84.0459 24.7895 68.5785 24.9855 49.8601C25.1815 31.1417 53.3278 16.2605 87.8519 16.622C122.376 16.9836 150.204 32.4509 150.008 51.1694C149.812 69.8878 121.666 84.769 87.142 84.4074Z" fill="#FCFDFE"/>
</g>
<g style="mix-blend-mode:multiply">
<path d="M87.1447 84.1456C52.8949 83.7869 25.2876 68.4391 25.4821 49.8653C25.6767 31.2915 53.5993 16.5253 87.849 16.8839C122.099 17.2426 149.706 32.5904 149.512 51.1642C149.317 69.738 121.394 84.5042 87.1447 84.1456Z" fill="#FCFDFE"/>
</g>
<g style="mix-blend-mode:multiply">
<path d="M87.1475 83.8747C53.1671 83.5188 25.7769 68.2946 25.9698 49.8704C26.1628 31.4463 53.8658 16.799 87.8462 17.1549C121.827 17.5107 149.217 32.735 149.024 51.1591C148.831 69.5833 121.128 84.2305 87.1475 83.8747Z" fill="#FCFDFE"/>
</g>
<g style="mix-blend-mode:multiply">
<path d="M87.1504 83.6127C53.4443 83.2598 26.2753 68.1551 26.4667 49.8756C26.6581 31.5961 54.1375 17.0638 87.8436 17.4167C121.55 17.7697 148.719 32.8744 148.527 51.1539C148.336 69.4334 120.857 83.9657 87.1504 83.6127Z" fill="#FBFDFE"/>
</g>
<g style="mix-blend-mode:multiply">
<path d="M87.1853 83.4863C53.7467 83.1519 26.7863 68.1829 26.9676 50.052C27.1489 31.9211 54.4033 17.4942 87.8419 17.8286C121.281 18.1629 148.241 33.132 148.06 51.2629C147.878 69.3938 120.624 83.8207 87.1853 83.4863Z" fill="#FBFCFE"/>
</g>
<g style="mix-blend-mode:multiply">
<path d="M87.156 83.0799C53.9935 82.7326 27.2626 67.8712 27.451 49.8859C27.6393 31.9007 54.6755 17.6023 87.838 17.9496C121.001 18.2969 147.731 33.1583 147.543 51.1436C147.355 69.1288 120.318 83.4272 87.156 83.0799Z" fill="#FBFCFE"/>
</g>
<g style="mix-blend-mode:multiply">
<path d="M87.1588 82.809C54.2657 82.4646 27.7519 67.7267 27.9387 49.8911C28.1255 32.0554 54.9421 17.8761 87.8352 18.2205C120.728 18.565 147.242 33.3029 147.055 51.1385C146.869 68.9741 120.052 83.1535 87.1588 82.809Z" fill="#FAFCFE"/>
</g>
<g style="mix-blend-mode:multiply">
<path d="M87.1617 82.5381C54.5428 82.1965 28.2502 67.5822 28.4354 49.8962C28.6206 32.2102 55.2135 18.1498 87.8324 18.4914C120.451 18.833 146.744 33.4473 146.559 51.1333C146.373 68.8193 119.781 82.8797 87.1617 82.5381Z" fill="#FAFCFD"/>
</g>
<g style="mix-blend-mode:multiply">
<path d="M87.1643 82.2762C54.8148 81.9374 28.7393 67.4427 28.923 49.9014C29.1067 32.36 55.4801 18.4146 87.8296 18.7533C120.179 19.0921 146.255 33.5868 146.071 51.1282C145.887 68.6695 119.514 82.615 87.1643 82.2762Z" fill="#FAFCFD"/>
</g>
<g style="mix-blend-mode:multiply">
<path d="M87.1672 82.0053C55.092 81.6694 29.2376 67.2983 29.4197 49.9065C29.6018 32.5148 55.7516 18.6883 87.8268 19.0242C119.902 19.3601 145.756 33.7312 145.574 51.123C145.392 68.5147 119.242 82.3412 87.1672 82.0053Z" fill="#F9FBFD"/>
</g>
<g style="mix-blend-mode:multiply">
<path d="M87.1699 81.7434C55.364 81.4103 29.7267 67.1588 29.9073 49.9117C30.0879 32.6646 56.0181 18.9531 87.8239 19.2862C119.63 19.6193 145.267 33.8708 145.087 51.1179C144.906 68.365 118.976 82.0765 87.1699 81.7434Z" fill="#F9FBFD"/>
</g>
<g style="mix-blend-mode:multiply">
<path d="M87.1727 81.4724C55.6412 81.1422 30.225 67.0143 30.404 49.9168C30.5831 32.8194 56.2896 19.2268 87.8211 19.5571C119.353 19.8873 144.769 34.0152 144.59 51.1126C144.411 68.2101 118.704 81.8026 87.1727 81.4724Z" fill="#F9FBFD"/>
</g>
<g style="mix-blend-mode:multiply">
<path d="M87.1754 81.2106C55.9132 80.8832 30.7141 66.8748 30.8916 49.922C31.0692 32.9692 56.5561 19.4916 87.8183 19.819C119.081 20.1464 144.28 34.1547 144.102 51.1076C143.925 68.0604 118.438 81.538 87.1754 81.2106Z" fill="#F8FBFD"/>
</g>
<g style="mix-blend-mode:multiply">
<path d="M87.1783 80.9396C56.1904 80.6151 31.2124 66.7303 31.3884 49.9272C31.5643 33.124 56.8276 19.7654 87.8155 20.0899C118.803 20.4144 143.781 34.2991 143.605 51.1023C143.429 67.9055 118.166 81.2641 87.1783 80.9396Z" fill="#F8FAFD"/>
</g>
<g style="mix-blend-mode:multiply">
<path d="M87.1812 80.6778C56.4626 80.3561 31.7017 66.5908 31.8762 49.9323C32.0506 33.2737 57.0943 20.0301 87.8129 20.3518C118.531 20.6735 143.292 34.4387 143.118 51.0973C142.944 67.7558 117.9 80.9994 87.1812 80.6778Z" fill="#F7FAFD"/>
</g>
<g style="mix-blend-mode:multiply">
<path d="M87.1838 80.4068C56.7396 80.088 32.1998 66.4464 32.3727 49.9375C32.5456 33.4285 57.3656 20.3039 87.8099 20.6227C118.254 20.9415 142.794 34.5831 142.621 51.092C142.448 67.6009 117.628 80.7256 87.1838 80.4068Z" fill="#F7FAFC"/>
</g>
<g style="mix-blend-mode:multiply">
<path d="M87.1867 80.1359C57.0117 79.8199 32.689 66.3019 32.8603 49.9426C33.0317 33.5833 57.6322 20.5776 87.8071 20.8936C117.982 21.2096 142.305 34.7276 142.133 51.0869C141.962 67.4462 117.362 80.4519 87.1867 80.1359Z" fill="#F6F9FC"/>
</g>
<g style="mix-blend-mode:multiply">
<path d="M87.1896 79.874C57.289 79.5608 33.1874 66.1624 33.3572 49.9478C33.527 33.7331 57.9039 20.8424 87.8045 21.1555C117.705 21.4686 141.807 34.867 141.637 51.0817C141.467 67.2964 117.09 80.1871 87.1896 79.874Z" fill="#F6F9FC"/>
</g>
<g style="mix-blend-mode:multiply">
<path d="M87.1924 79.603C57.5612 79.2927 33.6767 66.0179 33.8449 49.9529C34.0132 33.8878 58.1704 21.1161 87.8017 21.4264C117.433 21.7367 141.317 35.0116 141.149 51.0766C140.981 67.1416 116.824 79.9133 87.1924 79.603Z" fill="#F5F9FC"/>
</g>
<g style="mix-blend-mode:multiply">
<path d="M87.1951 79.3412C57.8381 79.0337 34.1748 65.8785 34.3415 49.9581C34.5082 34.0377 58.4419 21.3809 87.7989 21.6883C117.156 21.9958 140.819 35.151 140.652 51.0714C140.486 66.9918 116.552 79.6486 87.1951 79.3412Z" fill="#F5F8FC"/>
</g>
<g style="mix-blend-mode:multiply">
<path d="M87.2281 79.2145C58.1389 78.9236 34.6853 65.9024 34.843 50.1307C35.0007 34.3591 58.71 21.8095 87.7993 22.1004C116.888 22.3913 140.342 35.4125 140.184 51.1842C140.027 66.9558 116.317 79.5054 87.2281 79.2145Z" fill="#F4F8FC"/>
</g>
<g style="mix-blend-mode:multiply">
<path d="M87.2006 78.8083C58.3873 78.5066 35.1622 65.5945 35.3258 49.9684C35.4895 34.3423 58.9799 21.9194 87.7932 22.2211C116.607 22.5229 139.832 35.435 139.668 51.0611C139.504 66.6872 116.014 79.1101 87.2006 78.8083Z" fill="#F4F8FC"/>
</g>
<g style="mix-blend-mode:multiply">
<path d="M87.2334 78.6816C58.6879 78.3962 35.6727 65.6179 35.8274 50.1406C35.9822 34.6632 59.2484 22.3478 87.7939 22.6332C116.339 22.9187 139.355 35.697 139.2 51.1743C139.045 66.6516 115.779 78.9671 87.2334 78.6816Z" fill="#F3F7FB"/>
</g>
<g style="mix-blend-mode:multiply">
<path d="M87.2062 78.2755C58.9365 77.9795 36.1496 65.3105 36.3101 49.9787C36.4707 34.6468 59.5179 22.4579 87.7876 22.754C116.057 23.05 138.844 35.7189 138.684 51.0508C138.523 66.3826 115.476 78.5716 87.2062 78.2755Z" fill="#F3F7FB"/>
</g>
<g style="mix-blend-mode:multiply">
<path d="M87.209 78.0046C59.2087 77.7114 36.6388 65.1661 36.7978 49.9838C36.9568 34.8016 59.7845 22.7317 87.7848 23.0249C115.785 23.3182 138.355 35.8635 138.196 51.0457C138.037 66.2279 115.209 78.2979 87.209 78.0046Z" fill="#F2F7FB"/>
</g>
<g style="mix-blend-mode:multiply">
<path d="M87.2119 77.7337C59.4858 77.4433 37.1371 65.0216 37.2945 49.989C37.452 34.9564 60.0559 23.0055 87.782 23.2958C115.508 23.5862 137.857 36.0079 137.699 51.0405C137.542 66.0731 114.938 78.024 87.2119 77.7337Z" fill="#F2F6FB"/>
</g>
<g style="mix-blend-mode:multiply">
<path d="M87.2145 77.4718C59.7579 77.1843 37.6262 64.8821 37.7821 49.9941C37.9381 35.1062 60.3225 23.2702 87.7792 23.5577C115.236 23.8453 137.368 36.1474 137.212 51.0354C137.056 65.9234 114.671 77.7593 87.2145 77.4718Z" fill="#F1F6FB"/>
</g>
<g style="mix-blend-mode:multiply">
<path d="M87.2174 77.2009C60.035 76.9162 38.1245 64.7376 38.2789 49.9993C38.4332 35.261 60.594 23.544 87.7764 23.8286C114.959 24.1133 136.869 36.2918 136.715 51.0302C136.561 65.7685 114.4 77.4855 87.2174 77.2009Z" fill="#F0F5FB"/>
</g>
<g style="mix-blend-mode:multiply">
<path d="M87.2203 76.939C60.3073 76.6572 38.6139 64.5981 38.7667 50.0045C38.9195 35.4108 60.8607 23.8087 87.7738 24.0906C114.687 24.3724 136.38 36.4314 136.227 51.0251C136.075 65.6188 114.133 77.2208 87.2203 76.939Z" fill="#F0F5FA"/>
</g>
<g style="mix-blend-mode:multiply">
<path d="M87.2232 76.668C60.5845 76.3891 39.1122 64.4537 39.2634 50.0096C39.4147 35.5656 61.1322 24.0825 87.771 24.3615C114.41 24.6404 135.882 36.5758 135.731 51.0199C135.579 65.4639 113.862 76.947 87.2232 76.668Z" fill="#EFF5FA"/>
</g>
<g style="mix-blend-mode:multiply">
<path d="M87.2547 76.5503C60.8839 76.2866 39.622 64.4802 39.7651 50.18C39.9081 35.8798 61.4018 24.5009 87.7726 24.7646C114.143 25.0283 135.405 36.8347 135.262 51.1349C135.119 65.4351 113.626 76.814 87.2547 76.5503Z" fill="#EEF4FA"/>
</g>
<g style="mix-blend-mode:multiply">
<path d="M87.2287 76.1352C61.1336 75.8619 40.0996 64.1697 40.2477 50.0199C40.3959 35.8701 61.6703 24.621 87.7653 24.8943C113.86 25.1675 134.895 36.8598 134.746 51.0096C134.598 65.1593 113.324 76.4085 87.2287 76.1352Z" fill="#EEF4FA"/>
</g>
<g style="mix-blend-mode:multiply">
<path d="M87.2314 75.8733C61.4057 75.6029 40.5887 64.0302 40.7353 50.0251C40.882 36.0199 61.9368 24.8857 87.7625 25.1562C113.588 25.4267 134.405 36.9993 134.259 51.0045C134.112 65.0096 113.057 76.1438 87.2314 75.8733Z" fill="#EDF3F9"/>
</g>
<g style="mix-blend-mode:multiply">
<path d="M87.2342 75.6024C61.6828 75.3348 41.0869 63.8858 41.232 50.0302C41.3771 36.1747 62.2083 25.1595 87.7597 25.4271C113.311 25.6947 133.907 37.1437 133.762 50.9992C133.617 64.8548 112.786 75.87 87.2342 75.6024Z" fill="#ECF3F9"/>
</g>
<g style="mix-blend-mode:multiply">
<path d="M87.2656 75.4755C61.9821 75.2227 41.5969 63.9063 41.734 50.1996C41.8711 36.493 62.4785 25.5865 87.762 25.8393C113.045 26.0922 133.431 37.4086 133.294 51.1152C133.157 64.8219 112.549 75.7283 87.2656 75.4755Z" fill="#ECF2F9"/>
</g>
<g style="mix-blend-mode:multiply">
<path d="M87.2398 75.0696C62.232 74.8077 42.0743 63.6018 42.2163 50.0406C42.3584 36.4793 62.7463 25.698 87.7541 25.9599C112.762 26.2218 132.92 37.4277 132.778 50.9889C132.636 64.5502 112.248 75.3315 87.2398 75.0696Z" fill="#EBF2F9"/>
</g>
<g style="mix-blend-mode:multiply">
<path d="M87.2426 74.7986C62.5042 74.5396 42.5636 63.4573 42.704 50.0456C42.8445 36.634 63.0128 25.9717 87.7513 26.2308C112.49 26.4899 132.43 37.5722 132.29 50.9838C132.149 64.3954 111.981 75.0577 87.2426 74.7986Z" fill="#EAF1F9"/>
</g>
<g style="mix-blend-mode:multiply">
<path d="M87.2453 74.5368C62.7812 74.2806 43.0617 63.3178 43.2007 50.0509C43.3396 36.7839 63.2843 26.2365 87.7484 26.4927C112.213 26.7489 131.932 37.7116 131.793 50.9786C131.654 64.2456 111.709 74.7929 87.2453 74.5368Z" fill="#E9F1F8"/>
</g>
<g style="mix-blend-mode:multiply">
<path d="M87.2482 74.2658C63.0534 74.0124 43.551 63.1733 43.6884 50.0559C43.8257 36.9386 63.5508 26.5103 87.7456 26.7636C111.94 27.017 131.443 37.8561 131.305 50.9735C131.168 64.0909 111.443 74.5192 87.2482 74.2658Z" fill="#E9F0F8"/>
</g>
<g style="mix-blend-mode:multiply">
<path d="M87.2511 74.0039C63.3306 73.7534 44.0493 63.0339 44.1852 50.0612C44.3211 37.0884 63.8226 26.775 87.743 27.0255C111.664 27.2761 130.945 37.9956 130.809 50.9683C130.673 63.941 111.172 74.2544 87.2511 74.0039Z" fill="#E8F0F8"/>
</g>
<g style="mix-blend-mode:multiply">
<path d="M87.2539 73.733C63.6028 73.4854 44.5386 62.8894 44.6729 50.0663C44.8072 37.2432 64.0891 27.0488 87.7402 27.2965C111.391 27.5442 130.456 38.1402 130.321 50.9632C130.187 63.7863 110.905 73.9807 87.2539 73.733Z" fill="#E7EFF8"/>
</g>
<g style="mix-blend-mode:multiply">
<path d="M87.2566 73.4711C63.8798 73.2263 45.0367 62.7499 45.1695 50.0715C45.3023 37.393 64.3606 27.3136 87.7374 27.5584C111.114 27.8032 129.957 38.2795 129.825 50.958C129.692 63.6365 110.633 73.7159 87.2566 73.4711Z" fill="#E6EFF7"/>
</g>
<g style="mix-blend-mode:multiply">
<path d="M87.2595 73.2002C64.152 72.9582 45.526 62.6054 45.6572 50.0766C45.7884 37.5478 64.6271 27.5873 87.7346 27.8293C110.842 28.0713 129.468 38.4241 129.337 50.9529C129.206 63.4818 110.367 73.4422 87.2595 73.2002Z" fill="#E5EEF7"/>
</g>
<g style="mix-blend-mode:multiply">
<path d="M87.2623 72.9293C64.4292 72.6902 46.0243 62.461 46.1539 50.0818C46.2836 37.7026 64.8986 27.8611 87.7318 28.1002C110.565 28.3393 128.97 38.5685 128.84 50.9477C128.711 63.3269 110.096 73.1684 87.2623 72.9293Z" fill="#E5EEF7"/>
</g>
<g style="mix-blend-mode:multiply">
<path d="M87.265 72.6674C64.7011 72.4311 46.5134 62.3215 46.6415 50.0869C46.7696 37.8524 65.1651 28.1259 87.729 28.3622C110.293 28.5985 128.481 38.7081 128.352 50.9426C128.224 63.1772 109.829 72.9037 87.265 72.6674Z" fill="#E4EDF7"/>
</g>
<g style="mix-blend-mode:multiply">
<path d="M87.2679 72.3965C64.9783 72.163 47.0117 62.177 47.1383 50.0921C47.2648 38.0072 65.4366 28.3996 87.7262 28.633C110.016 28.8665 127.982 38.8525 127.856 50.9374C127.729 63.0223 109.557 72.6299 87.2679 72.3965Z" fill="#E3EDF6"/>
</g>
<g style="mix-blend-mode:multiply">
<path d="M87.2705 72.1346C65.2503 71.904 47.5008 62.0375 47.6258 50.0972C47.7509 38.1569 65.7031 28.6644 87.7233 28.895C109.744 29.1256 127.493 38.992 127.368 50.9323C127.243 62.8726 109.291 72.3652 87.2705 72.1346Z" fill="#E2ECF6"/>
</g>
<g style="mix-blend-mode:multiply">
<path d="M87.2734 71.8636C65.5275 71.6359 47.9991 61.8931 48.1226 50.1024C48.246 38.3117 65.9746 28.9381 87.7205 29.1659C109.466 29.3936 126.995 39.1364 126.871 50.9271C126.748 62.7177 109.019 72.0914 87.2734 71.8636Z" fill="#E1EBF6"/>
</g>
<g style="mix-blend-mode:multiply">
<path d="M87.276 71.6018C65.7995 71.3769 48.4882 61.7536 48.6101 50.1075C48.7321 38.4615 66.2411 29.2029 87.7177 29.4278C109.194 29.6527 126.506 39.276 126.384 50.922C126.262 62.568 108.753 71.8267 87.276 71.6018Z" fill="#E0EBF6"/>
</g>
<g style="mix-blend-mode:multiply">
<path d="M87.2789 71.3308C66.0767 71.1088 48.9865 61.6091 49.1069 50.1127C49.2273 38.6163 66.5127 29.4766 87.7149 29.6987C108.917 29.9207 126.007 39.4204 125.887 50.9168C125.767 62.4132 108.481 71.5528 87.2789 71.3308Z" fill="#DFEAF5"/>
</g>
<g style="mix-blend-mode:multiply">
<path d="M87.2816 71.0689C66.3487 70.8497 49.4756 61.4696 49.5945 50.1178C49.7133 38.7661 66.7792 29.7414 87.7121 29.9606C108.645 30.1798 125.518 39.5599 125.399 50.9117C125.28 62.2635 108.215 71.2882 87.2816 71.0689Z" fill="#DEEAF5"/>
</g>
<g style="mix-blend-mode:multiply">
<path d="M87.2847 70.798C66.6261 70.5816 49.9741 61.3251 50.0914 50.123C50.2087 38.9209 67.0509 30.0151 87.7095 30.2315C108.368 30.4478 125.02 39.7043 124.903 50.9065C124.786 62.1086 107.943 71.0143 87.2847 70.798Z" fill="#DDE9F5"/>
</g>
<g style="mix-blend-mode:multiply">
<path d="M87.2873 70.5271C66.8981 70.3136 50.4631 61.1807 50.5789 50.1282C50.6946 39.0757 67.3172 30.2889 87.7065 30.5025C108.096 30.716 124.531 39.8489 124.415 50.9014C124.299 61.9539 107.677 70.7406 87.2873 70.5271Z" fill="#DCE8F4"/>
</g>
<g style="mix-blend-mode:multiply">
<path d="M87.2902 70.2652C67.1753 70.0545 50.9615 61.0412 51.0757 50.1333C51.19 39.2255 67.5889 30.5537 87.7039 30.7643C107.819 30.975 124.033 39.9883 123.918 50.8962C123.804 61.804 107.405 70.4758 87.2902 70.2652Z" fill="#DBE8F4"/>
</g>
<g style="mix-blend-mode:multiply">
<path d="M87.2931 69.9942C67.4475 69.7864 51.4508 60.8966 51.5634 50.1384C51.6761 39.3802 67.8555 30.8274 87.7011 31.0352C107.547 31.243 123.543 40.1328 123.431 50.891C123.318 61.6493 107.139 70.2021 87.2931 69.9942Z" fill="#DAE7F4"/>
</g>
<g style="mix-blend-mode:multiply">
<path d="M87.2957 69.7323C67.7244 69.5274 51.9489 60.7572 52.06 50.1436C52.1712 39.53 68.1269 31.0922 87.6983 31.2971C107.27 31.5021 123.045 40.2723 122.934 50.8858C122.823 61.4994 106.867 69.9373 87.2957 69.7323Z" fill="#D9E6F3"/>
</g>
<g style="mix-blend-mode:multiply">
<path d="M87.2986 69.4615C67.9966 69.2593 52.4382 60.6127 52.5477 50.1488C52.6573 39.6848 68.3935 31.366 87.6954 31.5681C106.997 31.7702 122.556 40.4168 122.446 50.8808C122.337 61.3447 106.601 69.6636 87.2986 69.4615Z" fill="#D8E6F3"/>
</g>
<g style="mix-blend-mode:multiply">
<path d="M87.3013 69.1995C68.2736 69.0003 52.9363 60.4733 53.0443 50.1539C53.1524 39.8346 68.665 31.6307 87.6926 31.8299C106.72 32.0292 122.058 40.5562 121.95 50.8755C121.842 61.1949 106.329 69.3988 87.3013 69.1995Z" fill="#D7E5F3"/>
</g>
<g style="mix-blend-mode:multiply">
<path d="M87.3041 68.9286C68.5458 68.7321 53.4255 60.3287 53.532 50.159C53.6385 39.9893 68.9315 31.9044 87.6898 32.1008C106.448 32.2973 121.568 40.7007 121.462 50.8704C121.355 61.0401 106.062 69.125 87.3041 68.9286Z" fill="#D6E4F2"/>
</g>
<g style="mix-blend-mode:multiply">
<path d="M87.3068 68.6667C68.8228 68.4731 53.9236 60.1893 54.0286 50.1642C54.1336 40.1392 69.203 32.1692 87.687 32.3628C106.171 32.5563 121.07 40.8402 120.965 50.8652C120.86 60.8903 105.791 68.8603 87.3068 68.6667Z" fill="#D5E4F2"/>
</g>
<g style="mix-blend-mode:multiply">
<path d="M87.3097 68.3958C69.095 68.2051 54.4129 60.0448 54.5163 50.1694C54.6198 40.294 69.4695 32.443 87.6842 32.6337C105.899 32.8245 120.581 40.9847 120.478 50.8602C120.374 60.7356 105.524 68.5866 87.3097 68.3958Z" fill="#D4E3F2"/>
</g>
<g style="mix-blend-mode:multiply">
<path d="M87.3124 68.1339C69.372 67.946 54.9111 59.9053 55.013 50.1745C55.1149 40.4438 69.741 32.7077 87.6814 32.8956C105.622 33.0835 120.083 41.1241 119.981 50.8549C119.879 60.5857 105.253 68.3218 87.3124 68.1339Z" fill="#D3E2F1"/>
</g>
<g style="mix-blend-mode:multiply">
<path d="M87.3152 67.8629C69.6442 67.6779 55.4003 59.7608 55.5006 50.1796C55.601 40.5985 70.0075 32.9814 87.6786 33.1665C105.35 33.3516 119.593 41.2686 119.493 50.8498C119.393 60.431 104.986 68.048 87.3152 67.8629Z" fill="#D2E1F1"/>
</g>
<g style="mix-blend-mode:multiply">
<path d="M87.3181 67.592C69.9214 67.4099 55.8986 59.6164 55.9974 50.1849C56.0962 40.7533 70.279 33.2553 87.6758 33.4374C105.072 33.6196 119.095 41.4131 118.996 50.8446C118.898 60.2761 104.715 67.7742 87.3181 67.592Z" fill="#D0E1F1"/>
</g>
<g style="mix-blend-mode:multiply">
<path d="M87.321 67.3302C70.1936 67.1508 56.3879 59.4769 56.4852 50.19C56.5825 40.9031 70.5458 33.52 87.6732 33.6994C104.801 33.8787 118.606 41.5527 118.509 50.8395C118.412 60.1264 104.448 67.5096 87.321 67.3302Z" fill="#CFE0F0"/>
</g>
<g style="mix-blend-mode:multiply">
<path d="M87.3238 67.0592C70.4708 66.8827 56.8863 59.3324 56.9819 50.1952C57.0776 41.0579 70.8173 33.7938 87.6704 33.9703C104.523 34.1468 118.108 41.697 118.012 50.8343C117.917 59.9716 104.177 67.2357 87.3238 67.0592Z" fill="#CEDFF0"/>
</g>
<g style="mix-blend-mode:multiply">
<path d="M87.3265 66.7974C70.7428 66.6237 57.3754 59.1929 57.4695 50.2003C57.5637 41.2077 71.0838 34.0585 87.6676 34.2322C104.251 34.4059 117.619 41.8366 117.525 50.8292C117.43 59.8219 103.91 66.971 87.3265 66.7974Z" fill="#CDDEF0"/>
</g>
<g style="mix-blend-mode:multiply">
<path d="M87.3291 66.5264C71.0197 66.3556 57.8734 59.0485 57.966 50.2055C58.0586 41.3625 71.3551 34.3323 87.6645 34.5031C103.974 34.6739 117.12 41.981 117.028 50.824C116.935 59.667 103.639 66.6972 87.3291 66.5264Z" fill="#CCDEEF"/>
</g>
<g style="mix-blend-mode:multiply">
<path d="M87.332 66.2645C71.292 66.0966 58.3628 58.909 58.4539 50.2106C58.5449 41.5123 71.6218 34.597 87.6619 34.765C103.702 34.933 116.631 42.1206 116.54 50.8189C116.449 59.5173 103.372 66.4325 87.332 66.2645Z" fill="#CBDDEF"/>
</g>
<g style="mix-blend-mode:multiply">
<path d="M87.3349 65.9936C71.5691 65.8285 58.861 58.7645 58.9506 50.2158C59.0401 41.6671 71.8933 34.8708 87.6591 35.0359C103.425 35.201 116.133 42.265 116.043 50.8137C115.954 59.3624 103.101 66.1587 87.3349 65.9936Z" fill="#C9DCEF"/>
</g>
<g style="mix-blend-mode:multiply">
<path d="M87.3614 65.8752C71.8641 65.7203 59.3692 58.7814 59.4532 50.3768C59.5373 41.9723 72.1684 35.2847 87.6657 35.4397C103.163 35.5946 115.658 42.5335 115.574 50.938C115.49 59.3426 102.859 66.0302 87.3614 65.8752Z" fill="#C8DBEE"/>
</g>
<g style="mix-blend-mode:multiply">
<path d="M87.3404 65.4608C72.1183 65.3014 59.8484 58.4806 59.9349 50.2261C60.0213 41.9716 72.4313 35.4093 87.6535 35.5687C102.876 35.7281 115.145 42.5489 115.059 50.8034C114.973 59.0578 102.563 65.6202 87.3404 65.4608Z" fill="#C7DAEE"/>
</g>
<g style="mix-blend-mode:multiply">
<path d="M87.3433 65.1899C72.3905 65.0333 60.3377 58.3361 60.4226 50.2312C60.5074 42.1264 72.6979 35.6831 87.6507 35.8397C102.603 35.9963 114.656 42.6935 114.571 50.7983C114.487 58.9031 102.296 65.3465 87.3433 65.1899Z" fill="#C5D9ED"/>
</g>
<g style="mix-blend-mode:multiply">
<path d="M87.3459 64.9279C72.6675 64.7742 60.8358 58.1966 60.9192 50.2364C61.0025 42.2762 72.9694 35.9478 87.6478 36.1015C102.326 36.2553 114.158 42.8329 114.075 50.7931C113.991 58.7533 102.024 65.0817 87.3459 64.9279Z" fill="#C4D9ED"/>
</g>
<g style="mix-blend-mode:multiply">
<path d="M87.3488 64.657C72.9397 64.5061 61.3251 58.0521 61.4069 50.2415C61.4887 42.4309 73.2359 36.2215 87.645 36.3724C102.054 36.5233 113.669 42.9774 113.587 50.7879C113.505 58.5985 101.758 64.8079 87.3488 64.657Z" fill="#C3D8ED"/>
</g>
<g style="mix-blend-mode:multiply">
<path d="M87.3517 64.3951C73.2169 64.2471 61.8234 57.9126 61.9037 50.2467C61.984 42.5808 73.5076 36.4863 87.6424 36.6344C101.777 36.7824 113.171 43.1168 113.09 50.7828C113.01 58.4487 101.487 64.5432 87.3517 64.3951Z" fill="#C2D7EC"/>
</g>
<g style="mix-blend-mode:multiply">
<path d="M87.3543 64.1242C73.4888 63.979 62.3125 57.7682 62.3912 50.2519C62.4699 42.7356 73.7739 36.7601 87.6394 36.9053C101.505 37.0505 112.681 43.2614 112.603 50.7777C112.524 58.294 101.22 64.2694 87.3543 64.1242Z" fill="#C0D6EC"/>
</g>
<g style="mix-blend-mode:multiply">
<path d="M87.3573 63.8623C73.7661 63.72 62.8108 57.6287 62.888 50.257C62.9652 42.8854 74.0456 37.0248 87.6368 37.1672C101.228 37.3095 112.183 43.4008 112.106 50.7724C112.029 58.1441 100.948 64.0046 87.3573 63.8623Z" fill="#BFD5EB"/>
</g>
<g style="mix-blend-mode:multiply">
<path d="M87.3829 63.7348C74.0603 63.6016 63.3187 57.6387 63.391 50.4162C63.4632 43.1938 74.3218 37.4469 87.6444 37.5801C100.967 37.7133 111.709 43.6763 111.636 50.8987C111.564 58.1211 100.705 63.868 87.3829 63.7348Z" fill="#BDD4EB"/>
</g>
<g style="mix-blend-mode:multiply">
<path d="M87.3628 63.3295C74.3153 63.1928 63.7983 57.3447 63.8724 50.2673C63.9465 43.1899 74.5837 37.5633 87.6312 37.7C100.679 37.8366 111.196 43.6847 111.122 50.7621C111.048 57.8395 100.41 63.4661 87.3628 63.3295Z" fill="#BCD3EA"/>
</g>
<g style="mix-blend-mode:multiply">
<path d="M87.3656 63.0586C74.5874 62.9248 64.2875 57.2002 64.36 50.2725C64.4326 43.3447 74.8502 37.8371 87.6284 37.971C100.407 38.1048 110.707 43.8293 110.634 50.7571C110.561 57.6848 100.144 63.1924 87.3656 63.0586Z" fill="#BBD2EA"/>
</g>
<g style="mix-blend-mode:multiply">
<path d="M87.3683 62.7876C74.8644 62.6567 64.7855 57.0558 64.8565 50.2776C64.9275 43.4995 75.1214 38.1109 87.6253 38.2418C100.129 38.3728 110.208 43.9737 110.137 50.7518C110.066 57.53 99.8722 62.9186 87.3683 62.7876Z" fill="#B9D1EA"/>
</g>
<g style="mix-blend-mode:multiply">
<path d="M87.3712 62.5258C75.1366 62.3977 65.2749 56.9163 65.3444 50.2828C65.4138 43.6493 75.3882 38.3756 87.6228 38.5038C99.8573 38.6319 109.719 44.1133 109.65 50.7468C109.58 57.3803 99.6058 62.6539 87.3712 62.5258Z" fill="#B8D0E9"/>
</g>
<g style="mix-blend-mode:multiply">
<path d="M87.374 62.2548C75.4138 62.1296 65.7732 56.7718 65.8411 50.2879C65.909 43.8041 75.6597 38.6494 87.6199 38.7747C99.5802 38.8999 109.221 44.2577 109.153 50.7415C109.085 57.2254 99.3343 62.3801 87.374 62.2548Z" fill="#B6D0E9"/>
</g>
<g style="mix-blend-mode:multiply">
<path d="M87.3767 61.993C75.6858 61.8705 66.2623 56.6323 66.3287 50.2931C66.3951 43.9539 75.9262 38.9142 87.6171 39.0366C99.308 39.159 108.732 44.3972 108.665 50.7365C108.599 57.0757 99.0676 62.1154 87.3767 61.993Z" fill="#B5CFE8"/>
</g>
<g style="mix-blend-mode:multiply">
<path d="M108.195 50.729C108.132 56.9244 98.8298 61.8465 87.4233 61.7201C76.0167 61.5936 66.8047 56.4909 66.868 50.2954C66.9312 44.1 76.2425 39.1869 87.64 39.3043C99.0375 39.4217 108.195 44.5425 108.195 50.729Z" fill="#B3CEE8"/>
</g>
<g style="mix-blend-mode:multiply">
<path d="M87.3825 61.4601C76.2352 61.3434 67.2499 56.3484 67.3132 50.3034C67.3765 44.2584 76.4645 39.4527 87.6117 39.5694C98.759 39.6861 107.744 44.6812 107.681 50.7261C107.618 56.7711 98.5298 61.5769 87.3825 61.4601Z" fill="#B2CDE7"/>
</g>
<g style="mix-blend-mode:multiply">
<path d="M107.184 50.7199C107.13 56.6174 98.2608 61.3046 87.3871 61.1872C76.5133 61.0698 67.7439 56.2019 67.8072 50.3496C67.8704 44.4973 76.7391 39.7739 87.6128 39.8823C98.4866 39.9907 107.247 44.8225 107.184 50.7199Z" fill="#B0CCE7"/>
</g>
<g style="mix-blend-mode:multiply">
<path d="M87.4095 61.0705C76.8053 60.9645 68.2555 56.2164 68.313 50.4654C68.3706 44.7144 77.0136 40.1382 87.6178 40.2443C98.2219 40.3503 106.772 45.0984 106.714 50.8494C106.657 56.6004 98.0137 61.1766 87.4095 61.0705Z" fill="#AFCBE6"/>
</g>
<g style="mix-blend-mode:multiply">
<path d="M87.3906 60.6564C77.0613 60.5482 68.7353 55.9199 68.794 50.3189C68.8526 44.7178 77.2737 40.2649 87.603 40.3731C97.9323 40.4813 106.258 45.1095 106.2 50.7106C106.141 56.3117 97.7199 60.7645 87.3906 60.6564Z" fill="#ADCAE6"/>
</g>
<g style="mix-blend-mode:multiply">
<path d="M105.712 50.7019C105.657 56.1207 97.457 60.4918 87.3961 60.3925C77.3352 60.2931 69.2251 55.7775 69.2883 50.3225C69.3515 44.8676 77.5429 40.5326 87.6038 40.641C97.6647 40.7493 105.766 45.256 105.712 50.7019Z" fill="#ACC9E5"/>
</g>
<g style="mix-blend-mode:multiply">
<path d="M105.215 50.7018C105.161 56.0032 97.1861 60.2299 87.3961 60.1215C77.6062 60.0131 69.7218 55.6059 69.776 50.3316C69.8302 45.0573 77.8139 40.8035 87.5948 40.9029C97.3758 41.0022 105.278 45.3914 105.215 50.7018Z" fill="#AAC8E5"/>
</g>
<g style="mix-blend-mode:multiply">
<path d="M87.399 59.8527C77.8827 59.753 70.212 55.4915 70.266 50.3343C70.32 45.1772 78.0783 41.0772 87.5946 41.1769C97.1109 41.2766 104.782 45.5381 104.728 50.6952C104.674 55.8524 96.9153 59.9523 87.399 59.8527Z" fill="#A9C7E5"/>
</g>
<g style="mix-blend-mode:multiply">
<path d="M87.4228 59.7339C78.1803 59.6415 70.7284 55.5029 70.7785 50.4901C70.8286 45.4773 78.3618 41.4885 87.6043 41.5809C96.8468 41.6734 104.299 45.812 104.249 50.8248C104.198 55.8376 96.6653 59.8263 87.4228 59.7339Z" fill="#A7C6E4"/>
</g>
<g style="mix-blend-mode:multiply">
<path d="M103.743 50.6838C103.689 55.5517 96.3733 59.4171 87.4052 59.3268C78.4371 59.2365 71.203 55.2085 71.2572 50.2955C71.3114 45.3825 78.6177 41.5712 87.5948 41.6615C96.572 41.7519 103.797 45.825 103.743 50.6838Z" fill="#A5C4E4"/>
</g>
<g style="mix-blend-mode:multiply">
<path d="M87.4075 59.0579C78.7091 58.9668 71.6978 55.0681 71.7472 50.3498C71.7966 45.6315 78.8881 41.8805 87.5864 41.9716C96.2848 42.0627 103.296 45.9614 103.247 50.6797C103.197 55.3979 96.1058 59.149 87.4075 59.0579Z" fill="#A4C3E3"/>
</g>
<g style="mix-blend-mode:multiply">
<path d="M102.777 50.6748C102.731 55.2446 95.8586 58.8752 87.4234 58.803C78.9881 58.7307 72.2056 54.9466 72.2507 50.3767C72.2959 45.8069 79.1687 42.1672 87.604 42.2485C96.0393 42.3298 102.777 46.1049 102.777 50.6748Z" fill="#A2C2E3"/>
</g>
<g style="mix-blend-mode:multiply">
<path d="M87.4132 58.5251C79.2585 58.4397 72.6854 54.7841 72.7317 50.3601C72.7781 45.9361 79.4263 42.419 87.581 42.5044C95.7357 42.5898 102.309 46.2454 102.263 50.6694C102.216 55.0934 95.568 58.6105 87.4132 58.5251Z" fill="#A0C1E2"/>
</g>
<g style="mix-blend-mode:multiply">
<path d="M87.4158 58.2542C79.5305 58.1716 73.1744 54.6396 73.2192 50.3652C73.2639 46.0909 79.6926 42.6928 87.5779 42.7753C95.4633 42.8579 101.819 46.3899 101.775 50.6643C101.73 54.9387 95.3012 58.3368 87.4158 58.2542Z" fill="#9FC0E1"/>
</g>
<g style="mix-blend-mode:multiply">
<path d="M87.4187 57.9832C79.8077 57.9035 73.6727 54.4952 73.7159 50.3704C73.7591 46.2457 79.9641 42.9665 87.5751 43.0462C95.1862 43.126 101.321 46.5343 101.278 50.6591C101.235 54.7838 95.0298 58.0629 87.4187 57.9832Z" fill="#9DBFE1"/>
</g>
<g style="mix-blend-mode:multiply">
<path d="M87.4214 57.7214C80.0797 57.6445 74.1618 54.3557 74.2035 50.3756C74.2452 46.3955 80.2306 43.2313 87.5723 43.3082C94.9141 43.3851 100.832 46.6739 100.79 50.654C100.749 54.6341 94.7631 57.7983 87.4214 57.7214Z" fill="#9BBEE0"/>
</g>
<g style="mix-blend-mode:multiply">
<path d="M100.293 50.6477C100.293 54.486 94.4948 57.5296 87.4233 57.4573C80.3518 57.3851 74.662 54.2151 74.6982 50.3767C74.7343 46.5384 80.5053 43.5039 87.5678 43.5762C94.6303 43.6484 100.338 46.8184 100.293 50.6477Z" fill="#9ABDE0"/>
</g>
<g style="mix-blend-mode:multiply">
<path d="M99.8052 50.6477C99.8052 54.3325 94.2239 57.2586 87.4323 57.1864C80.6408 57.1141 75.1588 54.0706 75.1949 50.3858C75.231 46.701 80.7762 43.7749 87.5678 43.8471C94.3594 43.9194 99.8414 46.9629 99.8052 50.6477Z" fill="#98BCDF"/>
</g>
<g style="mix-blend-mode:multiply">
<path d="M87.4298 56.9176C80.906 56.8493 75.6475 53.9272 75.6845 50.391C75.7215 46.8548 81.0401 44.0436 87.5639 44.1119C94.0876 44.1802 99.3462 47.1022 99.3092 50.6384C99.2721 54.1746 93.9535 56.9859 87.4298 56.9176Z" fill="#96BADF"/>
</g>
<g style="mix-blend-mode:multiply">
<path d="M98.8206 50.6296C98.8206 54.0254 93.6908 56.7167 87.4321 56.6535C81.1734 56.5903 76.1429 53.7906 76.1791 50.3948C76.2152 46.999 81.3089 44.3077 87.5585 44.3799C93.8082 44.4522 98.8567 47.2429 98.8206 50.6296Z" fill="#94B9DE"/>
</g>
<g style="mix-blend-mode:multiply">
<path d="M98.324 50.6296C98.324 53.8719 93.42 56.4458 87.4413 56.3826C81.4625 56.3193 76.6037 53.6732 76.6669 50.4038C76.7301 47.1345 81.5799 44.5786 87.5587 44.6418C93.5374 44.7051 98.3601 47.3874 98.324 50.6296Z" fill="#92B8DE"/>
</g>
<g style="mix-blend-mode:multiply">
<path d="M97.8363 50.6206C97.8363 53.7184 93.149 56.1839 87.4412 56.1207C81.7334 56.0575 77.1275 53.5016 77.1636 50.4039C77.1997 47.3061 81.8509 44.8496 87.5587 44.9128C93.2665 44.976 97.8634 47.5319 97.8363 50.6206Z" fill="#91B7DD"/>
</g>
<g style="mix-blend-mode:multiply">
<path d="M97.3577 50.6206C97.3577 53.5648 92.8962 55.913 87.4232 55.8497C81.9502 55.7865 77.6062 53.3571 77.6333 50.4309C77.6603 47.5048 82.1038 45.1386 87.5677 45.1928C93.0317 45.247 97.3577 47.6674 97.3577 50.6206Z" fill="#8FB6DD"/>
</g>
<g style="mix-blend-mode:multiply">
<path d="M96.8519 50.6115C96.8519 53.4113 92.6072 55.642 87.4413 55.5878C82.2753 55.5336 78.121 53.2306 78.1481 50.4128C78.1751 47.5951 82.3837 45.3914 87.5497 45.4456C92.7156 45.4998 96.879 47.8118 96.8519 50.6115Z" fill="#8DB5DC"/>
</g>
<g style="mix-blend-mode:multiply">
<path d="M96.3553 50.6115C96.3553 53.2577 92.3454 55.371 87.4504 55.3169C82.5554 55.2627 78.6087 53.0771 78.6358 50.4219C78.6629 47.7667 82.6548 45.6624 87.5498 45.7075C92.4448 45.7527 96.3824 47.9563 96.3553 50.6115Z" fill="#8BB3DB"/>
</g>
<g style="mix-blend-mode:multiply">
<path d="M87.4495 55.0483C82.826 54.9998 79.0992 52.9309 79.1254 50.4271C79.1516 47.9233 82.9209 45.9329 87.5444 45.9813C92.1679 46.0297 95.8948 48.0987 95.8685 50.6024C95.8423 53.1062 92.073 55.0967 87.4495 55.0483Z" fill="#89B2DB"/>
</g>
<g style="mix-blend-mode:multiply">
<path d="M95.3709 50.5935C95.3709 52.9597 91.8036 54.8292 87.4505 54.784C83.0974 54.7389 79.6022 52.7881 79.6203 50.4309C79.6384 48.0737 83.2329 46.1952 87.5408 46.2404C91.8487 46.2855 95.398 48.2363 95.3709 50.5935Z" fill="#87B1DA"/>
</g>
<g style="mix-blend-mode:multiply">
<path d="M94.883 50.5935C94.883 52.8062 91.5324 54.5583 87.4592 54.5221C83.3861 54.486 80.0897 52.6527 80.1168 50.44C80.1439 48.2273 83.4584 46.4662 87.5405 46.5113C91.6227 46.5565 94.901 48.3808 94.883 50.5935Z" fill="#85B0DA"/>
</g>
<g style="mix-blend-mode:multiply">
<path d="M94.3865 50.5845C94.3865 52.6527 91.2617 54.2873 87.4595 54.2512C83.6573 54.2151 80.5867 52.5082 80.6048 50.44C80.6228 48.3718 83.7296 46.7371 87.5408 46.8275C91.352 46.9178 94.4136 48.5253 94.3865 50.5845Z" fill="#84AED9"/>
</g>
<g style="mix-blend-mode:multiply">
<path d="M87.4605 53.9826C83.9243 53.9456 81.0739 52.3629 81.094 50.4477C81.114 48.5325 83.997 47.0099 87.5332 47.0469C91.0694 47.084 93.9198 48.6666 93.8997 50.5818C93.8797 52.4971 90.9967 54.0196 87.4605 53.9826Z" fill="#82ADD9"/>
</g>
<g style="mix-blend-mode:multiply">
<path d="M93.402 50.5754C93.402 52.3817 90.6926 53.7544 87.4684 53.7183C84.2442 53.6822 81.571 52.2191 81.589 50.449C81.6071 48.6788 84.2984 47.279 87.5316 47.3151C90.7649 47.3512 93.4201 48.8053 93.402 50.5754Z" fill="#80ACD8"/>
</g>
<g style="mix-blend-mode:multiply">
<path d="M92.9142 50.5755C92.9142 52.1921 90.4577 53.4835 87.4954 53.4474C84.5331 53.4113 82.0766 52.0837 82.0766 50.458C82.0766 48.8324 84.5331 47.55 87.4954 47.5771C90.4577 47.6041 92.9323 48.9498 92.9142 50.5755Z" fill="#7EAAD7"/>
</g>
<g style="mix-blend-mode:multiply">
<path d="M92.4174 50.5664C92.4174 52.0385 90.1866 53.2126 87.4682 53.1855C84.7498 53.1584 82.5642 51.9392 82.5732 50.4761C82.5823 49.013 84.8039 47.8118 87.5224 47.8118C90.2408 47.8118 92.4354 49.0943 92.4174 50.5664Z" fill="#7CA9D7"/>
</g>
<g style="mix-blend-mode:multiply">
<path d="M91.939 50.5212C91.939 51.8488 89.925 52.9055 87.4865 52.8784C85.0481 52.8513 83.0612 51.7585 83.0792 50.4309C83.0973 49.1033 85.0842 48.0557 87.5317 48.0737C89.9792 48.0918 91.939 49.2388 91.939 50.5212Z" fill="#7AA8D6"/>
</g>
<g style="mix-blend-mode:multiply">
<path d="M91.4332 50.5212C91.4332 51.6953 89.6269 52.6346 87.4775 52.6165C85.328 52.5984 83.5489 51.614 83.5579 50.44C83.5669 49.2659 85.3641 48.3176 87.5226 48.3447C89.6811 48.3718 91.4513 49.3743 91.4332 50.5212Z" fill="#78A7D5"/>
</g>
<g style="mix-blend-mode:multiply">
<path d="M90.9455 50.5213C90.9455 51.5599 89.3831 52.3275 87.4775 52.3275C85.5719 52.3275 84.0456 51.4244 84.0546 50.4219C84.0636 49.4194 85.617 48.6156 87.5226 48.6156C89.4282 48.6156 90.9545 49.5188 90.9455 50.5213Z" fill="#76A5D5"/>
</g>
<g style="mix-blend-mode:multiply">
<path d="M90.4487 50.5213C90.4487 51.4244 89.112 52.1108 87.4774 52.0927C85.8427 52.0746 84.5332 51.3431 84.5422 50.458C84.5512 49.573 85.8879 48.8685 87.5135 48.8866C89.1391 48.9046 90.4577 49.6633 90.4487 50.5213Z" fill="#74A4D4"/>
</g>
<g style="mix-blend-mode:multiply">
<path d="M89.9611 50.5213C89.9611 51.2618 88.8413 51.8489 87.4866 51.8308C86.1319 51.8128 85.03 51.2077 85.039 50.4671C85.0481 49.7265 86.1499 49.1485 87.5136 49.1666C88.8774 49.1846 89.9702 49.8078 89.9611 50.5213Z" fill="#71A3D4"/>
</g>
<g style="mix-blend-mode:multiply">
<path d="M89.4643 50.5212C89.4643 51.1083 88.5612 51.5779 87.4864 51.5689C86.4117 51.5598 85.5266 51.0631 85.5266 50.4761C85.5266 49.889 86.4298 49.4194 87.5135 49.4284C88.5973 49.4375 89.4733 49.9432 89.4643 50.5212Z" fill="#6FA1D3"/>
</g>
<g style="mix-blend-mode:multiply">
<path d="M88.9766 50.5212C88.9766 50.9638 88.3082 51.316 87.4864 51.307C86.6645 51.2979 86.0143 50.9367 86.0233 50.4941C86.0324 50.0516 86.6916 49.6994 87.5045 49.7084C88.3173 49.7174 88.9766 50.0877 88.9766 50.5212Z" fill="#6DA0D2"/>
</g>
<g style="mix-blend-mode:multiply">
<path d="M88.4798 50.5212C88.4798 50.8193 88.0373 51.0541 87.4954 51.045C86.9535 51.036 86.52 50.8012 86.52 50.5212C86.52 50.2413 86.9716 49.9974 87.5135 49.9974C88.0554 49.9974 88.4889 50.2322 88.4798 50.5212Z" fill="#6B9ED2"/>
</g>
<g style="mix-blend-mode:multiply">
<path d="M87.9922 50.5213C87.9922 50.6658 87.7664 50.7832 87.4954 50.7832C87.2245 50.7832 87.0078 50.6567 87.0078 50.5122C87.0078 50.3677 87.2335 50.2413 87.5045 50.2503C87.7754 50.2594 87.9922 50.3768 87.9922 50.5213Z" fill="#699DD1"/>
</g>
</g>
<path d="M62.1898 37.9496L66.8771 35.2402L49.5821 25.2335C49.4046 25.1721 49.2507 25.0569 49.1418 24.9039C49.0329 24.751 48.9743 24.5678 48.9743 24.3801C48.9743 24.1923 49.0329 24.0092 49.1418 23.8562C49.2507 23.7032 49.4046 23.588 49.5821 23.5266L67.2474 13.3212C67.7083 13.0893 68.2171 12.9685 68.733 12.9685C69.249 12.9685 69.7578 13.0893 70.2187 13.3212L87.5046 23.3279L92.2009 20.6185L74.9059 10.6299C72.9916 9.66374 70.8773 9.16043 68.733 9.16043C66.5887 9.16043 64.4744 9.66374 62.5601 10.6299L44.8948 20.8353C41.49 22.7951 41.49 25.9922 44.8948 27.961L62.1898 37.9496Z" fill="#173D7A"/>
<path d="M54.6214 39.1418C54.6214 36.6311 56.1477 33.723 58.0262 32.6302L89.3559 14.5675C89.6728 14.3419 90.0443 14.2053 90.4318 14.1719C90.8194 14.1386 91.2088 14.2097 91.5595 14.3779L128.967 36.0711L92.7878 63.3367L55.9309 41.9415C55.8159 41.8905 55.7068 41.8269 55.6058 41.7518C55.2552 41.4194 54.9844 41.0119 54.8139 40.5598C54.6434 40.1078 54.5776 39.6229 54.6214 39.1418Z" fill="#D4ECFF"/>
<path d="M92.7969 63.3548L55.9401 41.9596C55.825 41.9086 55.7159 41.845 55.6149 41.7699C55.2601 41.4364 54.9862 41.0263 54.814 40.5708C54.6419 40.1154 54.576 39.6266 54.6215 39.1418C54.6509 37.8855 54.9594 36.6516 55.5246 35.5293L97.5474 59.7693L92.7969 63.3548Z" fill="#396CAA"/>
<path d="M95.1542 63.2554L126.484 45.1928C128.371 44.109 129.898 41.1919 129.898 38.6902C129.898 36.1795 128.371 35.0235 126.484 36.1163L95.1542 54.1789C93.2757 55.2627 91.7494 58.1708 91.7494 60.6815C91.7494 63.1651 93.2757 64.3392 95.1542 63.2554Z" fill="#173D7A"/>
<path d="M94.7748 54.0074L126.114 35.9447C126.436 35.711 126.818 35.572 127.215 35.5433C127.612 35.5146 128.009 35.5973 128.362 35.7821C128.043 35.7038 127.711 35.6931 127.388 35.7507C127.064 35.8082 126.756 35.9327 126.484 36.1163L95.1541 54.179C93.2756 55.2627 91.7493 58.1708 91.7493 60.6815C91.6969 61.194 91.7755 61.7115 91.9777 62.1854C92.1799 62.6593 92.4991 63.0741 92.9053 63.3909C92.0022 63.1109 91.37 62.0633 91.37 60.4828C91.37 57.9992 92.8963 55.0911 94.7748 54.0074Z" fill="white"/>
<path d="M99.8503 57.1593L103.616 54.9827C103.823 54.8337 103.991 54.6385 104.109 54.4127C104.227 54.1869 104.29 53.9367 104.294 53.6822C104.294 53.1855 103.987 52.9597 103.616 53.1674L99.8503 55.344C99.6424 55.4915 99.4725 55.6864 99.3547 55.9125C99.2369 56.1386 99.1746 56.3895 99.173 56.6445C99.1639 57.1412 99.471 57.367 99.8503 57.1593Z" fill="#FF2C9C"/>
<path d="M95.0367 31.7541C94.822 31.6781 94.6362 31.5374 94.5047 31.3514C94.3733 31.1654 94.3027 30.9433 94.3027 30.7155C94.3027 30.4878 94.3733 30.2656 94.5047 30.0796C94.6362 29.8937 94.822 29.753 95.0367 29.6769C95.5956 29.3901 96.2148 29.2405 96.843 29.2405C97.4712 29.2405 98.0903 29.3901 98.6492 29.6769C98.8649 29.7506 99.0522 29.89 99.1848 30.0754C99.3174 30.2608 99.3887 30.4831 99.3887 30.711C99.3887 30.939 99.3174 31.1612 99.1848 31.3466C99.0522 31.5321 98.8649 31.6714 98.6492 31.7451C98.0904 32.0312 97.4719 32.1812 96.8441 32.1828C96.2163 32.1843 95.5969 32.0375 95.0367 31.7541Z" fill="#5793CE"/>
<path d="M89.5636 34.8338C89.3478 34.7601 89.1606 34.6208 89.028 34.4354C88.8954 34.2499 88.8241 34.0277 88.8241 33.7997C88.8241 33.5718 88.8954 33.3495 89.028 33.1641C89.1606 32.9787 89.3478 32.8394 89.5636 32.7656C90.1216 32.4759 90.7411 32.3246 91.3698 32.3246C91.9986 32.3246 92.6181 32.4759 93.1761 32.7656C93.3918 32.8394 93.5791 32.9787 93.7117 33.1641C93.8442 33.3495 93.9155 33.5718 93.9155 33.7997C93.9155 34.0277 93.8442 34.2499 93.7117 34.4354C93.5791 34.6208 93.3918 34.7601 93.1761 34.8338C92.6161 35.1171 91.9974 35.2648 91.3698 35.2648C90.7423 35.2648 90.1235 35.1171 89.5636 34.8338Z" fill="white"/>
<path d="M84.0997 37.8774C83.884 37.8037 83.6967 37.6643 83.5641 37.4789C83.4315 37.2935 83.3602 37.0712 83.3602 36.8433C83.3602 36.6153 83.4315 36.3931 83.5641 36.2076C83.6967 36.0222 83.884 35.8829 84.0997 35.8092C84.6577 35.5194 85.2772 35.3682 85.9059 35.3682C86.5347 35.3682 87.1542 35.5194 87.7122 35.8092C87.9279 35.8829 88.1152 36.0222 88.2478 36.2076C88.3804 36.3931 88.4517 36.6153 88.4517 36.8433C88.4517 37.0712 88.3804 37.2935 88.2478 37.4789C88.1152 37.6643 87.9279 37.8037 87.7122 37.8774C87.1527 38.1621 86.5338 38.3105 85.9059 38.3105C85.2781 38.3105 84.6592 38.1621 84.0997 37.8774Z" fill="white"/>
</svg>
