<svg width="157" height="120" viewBox="0 0 157 120" fill="none" xmlns="http://www.w3.org/2000/svg">
<g style="mix-blend-mode:multiply" opacity="0.3">
<g style="mix-blend-mode:multiply">
<g style="mix-blend-mode:multiply">
<path d="M0 29.126H156.23V119.323H0V29.126Z" fill="white"/>
</g>
<g style="mix-blend-mode:multiply">
<path d="M77.7472 109.966C41.3424 109.585 11.9982 93.275 12.2049 73.5364C12.4116 53.7979 42.091 38.1057 78.4957 38.487C114.9 38.8682 144.245 55.1785 144.038 74.917C143.831 94.6556 114.152 110.348 77.7472 109.966Z" fill="white"/>
</g>
<g style="mix-blend-mode:multiply">
<path d="M77.7496 109.733C41.5898 109.354 12.4429 93.1541 12.6482 73.5491C12.8535 53.9442 42.3333 38.3582 78.4931 38.7369C114.653 39.1156 143.8 55.3155 143.595 74.9204C143.389 94.5254 113.909 110.111 77.7496 109.733Z" fill="white"/>
</g>
<g style="mix-blend-mode:multiply">
<path d="M77.7521 109.499C41.8327 109.123 12.8796 93.0295 13.0836 73.5536C13.2876 54.0778 42.5713 38.5945 78.4907 38.9706C114.41 39.3468 143.363 55.44 143.159 74.9158C142.955 94.3917 113.672 109.875 77.7521 109.499Z" fill="white"/>
</g>
<g style="mix-blend-mode:multiply">
<path d="M77.7546 109.257C42.0801 108.883 13.3244 92.9006 13.5269 73.5583C13.7295 54.2161 42.8136 38.8389 78.4881 39.2125C114.163 39.5861 142.918 55.569 142.716 74.9112C142.513 94.2535 113.429 109.631 77.7546 109.257Z" fill="white"/>
</g>
<g style="mix-blend-mode:multiply">
<path d="M77.7571 109.015C42.323 108.644 13.7612 92.768 13.9624 73.5548C14.1636 54.3417 43.0517 39.0672 78.4857 39.4383C113.92 39.8094 142.482 55.6855 142.28 74.8986C142.079 94.1117 113.191 109.386 77.7571 109.015Z" fill="white"/>
</g>
<g style="mix-blend-mode:multiply">
<path d="M77.7595 108.773C42.5704 108.405 14.2059 92.639 14.4057 73.5594C14.6055 54.4799 43.2939 39.3116 78.4831 39.6801C113.672 40.0486 142.037 55.8144 141.837 74.8939C141.637 93.9735 112.949 109.142 77.7595 108.773Z" fill="white"/>
</g>
<g style="mix-blend-mode:multiply">
<path d="M77.762 108.548C42.8133 108.182 14.6427 92.5225 14.8411 73.5721C15.0396 54.6216 43.532 39.556 78.4807 39.922C113.429 40.288 141.6 55.947 141.402 74.8974C141.203 93.8479 112.711 108.913 77.762 108.548Z" fill="white"/>
</g>
<g style="mix-blend-mode:multiply">
<path d="M77.7645 108.306C43.0606 107.942 15.0874 92.3936 15.2845 73.5767C15.4815 54.7599 43.7743 39.8004 78.4781 40.1639C113.182 40.5273 141.155 56.076 140.958 74.8928C140.761 93.7097 112.468 108.669 77.7645 108.306Z" fill="white"/>
</g>
<g style="mix-blend-mode:multiply">
<path d="M77.767 108.064C43.3036 107.703 15.5242 92.2609 15.7199 73.5732C15.9156 54.8855 44.0123 40.0287 78.4757 40.3896C112.939 40.7506 140.719 56.1925 140.523 74.8802C140.327 93.5679 112.23 108.425 77.767 108.064Z" fill="white"/>
</g>
<g style="mix-blend-mode:multiply">
<path d="M77.7697 107.83C43.5512 107.472 15.9691 92.14 16.1634 73.5859C16.3577 55.0318 44.2548 40.2812 78.4733 40.6395C112.692 40.9979 140.274 56.3295 140.08 74.8836C139.885 93.4377 111.988 108.188 77.7697 107.83Z" fill="white"/>
</g>
<g style="mix-blend-mode:multiply">
<path d="M77.7721 107.58C43.7941 107.224 16.4058 92.0029 16.5987 73.5824C16.7916 55.1618 44.4926 40.5175 78.4707 40.8733C112.449 41.2292 139.837 56.4504 139.644 74.871C139.451 93.2915 111.75 107.936 77.7721 107.58Z" fill="white"/>
</g>
<g style="mix-blend-mode:multiply">
<path d="M77.7746 107.346C44.0415 106.993 16.8507 91.8785 17.0422 73.5871C17.2338 55.2956 44.7352 40.7539 78.4683 41.1071C112.201 41.4604 139.392 56.5749 139.201 74.8663C139.009 93.1578 111.508 107.7 77.7746 107.346Z" fill="#FEFFFF"/>
</g>
<g style="mix-blend-mode:multiply">
<path d="M77.7771 107.104C44.2844 106.754 17.2873 91.7495 17.4775 73.5916C17.6676 55.4338 44.973 40.9983 78.4657 41.349C111.958 41.6998 138.955 56.704 138.765 74.8618C138.575 93.0197 111.27 107.455 77.7771 107.104Z" fill="#FEFFFF"/>
</g>
<g style="mix-blend-mode:multiply">
<path d="M77.7796 106.871C44.5318 106.522 17.7322 91.625 17.921 73.5963C18.1098 55.5675 45.2155 41.2346 78.4633 41.5828C111.711 41.931 138.511 56.8284 138.322 74.8571C138.133 92.8859 111.027 107.219 77.7796 106.871Z" fill="#FEFEFF"/>
</g>
<g style="mix-blend-mode:multiply">
<path d="M77.782 106.629C44.7746 106.283 18.1688 91.4959 18.3562 73.6008C18.5436 55.7057 45.4533 41.479 78.4607 41.8247C111.468 42.1703 138.074 56.9574 137.887 74.8526C137.699 92.7477 110.789 106.974 77.782 106.629Z" fill="#FEFEFF"/>
</g>
<g style="mix-blend-mode:multiply">
<path d="M77.7845 106.403C45.0221 106.06 18.6136 91.3795 18.7997 73.6135C18.9857 55.8475 45.6958 41.7235 78.4583 42.0666C111.221 42.4097 137.629 57.09 137.443 74.856C137.257 92.622 110.547 106.746 77.7845 106.403Z" fill="#FEFEFF"/>
</g>
<g style="mix-blend-mode:multiply">
<path d="M77.787 106.161C45.265 105.821 19.0503 91.2505 19.235 73.6181C19.4196 55.9856 45.9336 41.9678 78.4557 42.3084C110.978 42.649 137.192 57.219 137.008 74.8514C136.823 92.4839 110.309 106.502 77.787 106.161Z" fill="#FEFEFF"/>
</g>
<g style="mix-blend-mode:multiply">
<path d="M77.7895 105.919C45.5124 105.581 19.4952 91.118 19.6785 73.6147C19.8618 56.1113 46.1761 42.1961 78.4533 42.5342C110.73 42.8722 136.748 57.3354 136.564 74.8387C136.381 92.342 110.067 106.257 77.7895 105.919Z" fill="#FEFEFF"/>
</g>
<g style="mix-blend-mode:multiply">
<path d="M77.7919 105.677C45.7552 105.342 19.9318 90.9889 20.1137 73.6192C20.2956 56.2495 46.414 42.4405 78.4507 42.776C110.487 43.1115 136.311 57.4644 136.129 74.8342C135.947 92.2039 109.829 106.013 77.7919 105.677Z" fill="#FDFEFE"/>
</g>
<g style="mix-blend-mode:multiply">
<path d="M77.7946 105.436C46.0028 105.103 20.3768 90.86 20.5573 73.6239C20.7378 56.3877 46.6565 42.685 78.4483 43.0179C110.24 43.3508 135.866 57.5934 135.686 74.8295C135.505 92.0657 109.586 105.768 77.7946 105.436Z" fill="#FDFEFE"/>
</g>
<g style="mix-blend-mode:multiply">
<path d="M77.7969 105.21C46.2455 104.879 20.8133 90.7435 20.9925 73.6365C21.1716 56.5294 46.8943 42.9293 78.4457 43.2597C109.997 43.5902 135.429 57.726 135.25 74.833C135.071 91.94 109.348 105.54 77.7969 105.21Z" fill="#FDFEFE"/>
</g>
<g style="mix-blend-mode:multiply">
<path d="M77.7996 104.968C46.4931 104.64 21.2583 90.6146 21.436 73.6411C21.6138 56.6677 47.1368 43.1738 78.4433 43.5016C109.75 43.8295 134.985 57.855 134.807 74.8284C134.629 91.8018 109.106 105.296 77.7996 104.968Z" fill="#FDFDFE"/>
</g>
<g style="mix-blend-mode:multiply">
<path d="M77.8021 104.734C46.7405 104.409 21.7031 90.4901 21.8795 73.6458C22.0559 56.8015 47.3793 43.4102 78.4409 43.7355C109.502 44.0607 134.54 57.9795 134.363 74.8238C134.187 91.6681 108.864 105.059 77.8021 104.734Z" fill="#FCFDFE"/>
</g>
<g style="mix-blend-mode:multiply">
<path d="M77.8045 104.484C46.9834 104.161 22.1398 90.353 22.3148 73.6423C22.4898 56.9315 47.6171 43.6465 78.4383 43.9692C109.259 44.292 134.103 58.1004 133.928 74.8111C133.753 91.5219 108.626 104.807 77.8045 104.484Z" fill="#FCFDFE"/>
</g>
<g style="mix-blend-mode:multiply">
<path d="M77.807 104.25C47.2308 103.93 22.5846 90.2285 22.7583 73.6469C22.9319 57.0653 47.8596 43.8828 78.4359 44.2031C109.012 44.5233 133.658 58.2249 133.485 74.8065C133.311 91.3881 108.383 104.571 77.807 104.25Z" fill="#FCFDFE"/>
</g>
<g style="mix-blend-mode:multiply">
<path d="M77.8095 104.017C47.4737 103.699 23.0213 90.1076 23.1936 73.6595C23.3658 57.2115 48.0975 44.1353 78.4333 44.453C108.769 44.7707 133.221 58.362 133.049 74.81C132.877 91.258 108.145 104.334 77.8095 104.017Z" fill="#FCFDFE"/>
</g>
<g style="mix-blend-mode:multiply">
<path d="M77.812 103.783C47.7211 103.468 23.4661 89.9831 23.637 73.6642C23.8079 57.3453 48.34 44.3717 78.4309 44.6868C108.522 45.0019 132.777 58.4865 132.606 74.8054C132.435 91.1243 107.903 104.098 77.812 103.783Z" fill="#FBFDFE"/>
</g>
<g style="mix-blend-mode:multiply">
<path d="M77.8144 103.541C47.964 103.228 23.9028 89.8541 24.0723 73.6687C24.2418 57.4834 48.5778 44.616 78.4282 44.9286C108.279 45.2412 132.34 58.6155 132.17 74.8008C132.001 90.9861 107.665 103.853 77.8144 103.541Z" fill="#FBFCFE"/>
</g>
<g style="mix-blend-mode:multiply">
<path d="M77.8171 103.299C48.2116 102.989 24.3478 89.7252 24.5159 73.6734C24.684 57.6217 48.8203 44.8605 78.4259 45.1705C108.031 45.4806 131.895 58.7444 131.727 74.7962C131.559 90.8479 107.423 103.609 77.8171 103.299Z" fill="#FBFCFE"/>
</g>
<g style="mix-blend-mode:multiply">
<path d="M77.8194 103.065C48.4543 102.758 24.7843 89.6006 24.9511 73.678C25.1178 57.7553 49.0581 45.0968 78.4232 45.4043C107.788 45.7118 131.458 58.869 131.292 74.7916C131.125 90.7142 107.185 103.373 77.8194 103.065Z" fill="#FAFCFE"/>
</g>
<g style="mix-blend-mode:multiply">
<path d="M77.8221 102.815C48.7019 102.51 25.2293 89.4636 25.3946 73.6745C25.56 57.8855 49.3006 45.3332 78.4209 45.6381C107.541 45.9431 131.014 58.9898 130.848 74.7789C130.683 90.5679 106.942 103.12 77.8221 102.815Z" fill="#FAFCFD"/>
</g>
<g style="mix-blend-mode:multiply">
<path d="M77.8244 102.581C48.9446 102.279 25.6658 89.339 25.8298 73.6791C25.9938 58.0192 49.5385 45.5695 78.4182 45.8719C107.298 46.1743 130.577 59.1144 130.413 74.7743C130.249 90.4342 106.704 102.884 77.8244 102.581Z" fill="#FAFCFD"/>
</g>
<g style="mix-blend-mode:multiply">
<path d="M77.8791 102.421C49.2426 102.135 26.154 89.3156 26.3093 73.7884C26.4646 58.2612 49.8049 45.9061 78.4413 46.1924C107.078 46.4788 130.166 59.2982 130.011 74.8254C129.856 90.3526 106.516 102.708 77.8791 102.421Z" fill="#F9FBFD"/>
</g>
<g style="mix-blend-mode:multiply">
<path d="M77.8296 102.114C49.4351 101.817 26.5476 89.0936 26.7088 73.6963C26.8701 58.2991 50.019 46.0583 78.4135 46.3556C106.808 46.653 129.695 59.376 129.534 74.7732C129.373 90.1704 106.224 102.411 77.8296 102.114Z" fill="#F9FBFD"/>
</g>
<g style="mix-blend-mode:multiply">
<path d="M77.832 101.872C49.6824 101.577 26.9923 88.9646 27.1522 73.701C27.312 58.4374 50.2613 46.3027 78.4109 46.5975C106.56 46.8923 129.251 59.5049 129.091 74.7685C128.931 90.0322 105.982 102.167 77.832 101.872Z" fill="#F9FBFD"/>
</g>
<g style="mix-blend-mode:multiply">
<path d="M77.8345 101.638C49.9254 101.346 27.4291 88.8401 27.5876 73.7055C27.7461 58.571 50.4994 46.539 78.4085 46.8313C106.318 47.1236 128.814 59.6295 128.655 74.764C128.497 89.8985 105.744 101.93 77.8345 101.638Z" fill="#F8FBFD"/>
</g>
<g style="mix-blend-mode:multiply">
<path d="M77.8369 101.388C50.1727 101.099 27.8738 88.7031 28.0309 73.7022C28.188 58.7012 50.7416 46.7754 78.4058 47.0651C106.07 47.3549 128.369 59.7504 128.212 74.7513C128.055 89.7522 105.501 101.678 77.8369 101.388Z" fill="#F8FAFD"/>
</g>
<g style="mix-blend-mode:multiply">
<path d="M77.8395 101.154C50.4157 100.867 28.3106 88.5785 28.4663 73.7067C28.6221 58.8349 50.9797 47.0117 78.4034 47.2989C105.827 47.5861 127.932 59.8749 127.777 74.7467C127.621 89.6185 105.263 101.442 77.8395 101.154Z" fill="#F7FAFD"/>
</g>
<g style="mix-blend-mode:multiply">
<path d="M77.8419 100.913C50.663 100.628 28.7553 88.4496 28.9096 73.7113C29.064 58.9731 51.2219 47.2562 78.4008 47.5408C105.58 47.8254 127.487 60.0039 127.333 74.7421C127.179 89.4803 105.021 101.197 77.8419 100.913Z" fill="#F7FAFC"/>
</g>
<g style="mix-blend-mode:multiply">
<path d="M77.8446 100.671C50.9061 100.389 29.1922 88.3205 29.3452 73.7159C29.4981 59.1113 51.46 47.5005 78.3984 47.7827C105.337 48.0648 127.051 60.1329 126.898 74.7375C126.745 89.3421 104.783 100.953 77.8446 100.671Z" fill="#F6F9FC"/>
</g>
<g style="mix-blend-mode:multiply">
<path d="M77.8469 100.445C51.1533 100.165 29.6368 88.2041 29.7884 73.7286C29.94 59.2531 51.7023 47.745 78.3958 48.0245C105.089 48.3041 126.606 60.2654 126.454 74.7409C126.303 89.2165 104.54 100.725 77.8469 100.445Z" fill="#F6F9FC"/>
</g>
<g style="mix-blend-mode:multiply">
<path d="M77.8495 100.203C51.3964 99.9261 30.0737 88.0751 30.2239 73.7332C30.3741 59.3912 51.9403 47.9894 78.3934 48.2664C104.847 48.5434 126.169 60.3944 126.019 74.7364C125.869 89.0783 104.303 100.48 77.8495 100.203Z" fill="#F5F9FC"/>
</g>
<g style="mix-blend-mode:multiply">
<path d="M77.9028 100.051C51.6931 99.7888 30.5613 88.054 30.7034 73.8404C30.8455 59.6268 52.2079 48.3169 78.4175 48.579C104.627 48.841 125.759 60.5759 125.617 74.7895C125.475 89.0031 104.112 100.313 77.9028 100.051Z" fill="#F5F8FC"/>
</g>
<g style="mix-blend-mode:multiply">
<path d="M77.8545 99.7194C51.8867 99.4475 30.9552 87.8135 31.1027 73.7343C31.2501 59.6551 52.4207 48.4621 78.3884 48.734C104.356 49.0059 125.288 60.6399 125.14 74.7191C124.993 88.7983 103.822 99.9913 77.8545 99.7194Z" fill="#F4F8FC"/>
</g>
<g style="mix-blend-mode:multiply">
<path d="M77.8568 99.4856C52.1339 99.2162 31.3998 87.6891 31.5459 73.739C31.692 59.7889 52.6629 48.6984 78.3858 48.9678C104.109 49.2372 124.843 60.7644 124.697 74.7145C124.551 88.6646 103.58 99.755 77.8568 99.4856Z" fill="#F4F8FC"/>
</g>
<g style="mix-blend-mode:multiply">
<path d="M77.8594 99.2437C52.377 98.9769 31.8367 87.56 31.9814 73.7435C32.1261 59.927 52.901 48.9428 78.3834 49.2097C103.866 49.4765 124.406 60.8934 124.261 74.7099C124.117 88.5264 103.342 99.5106 77.8594 99.2437Z" fill="#F3F7FB"/>
</g>
<g style="mix-blend-mode:multiply">
<path d="M77.862 99.018C52.6244 98.7537 32.2816 87.4436 32.4249 73.7562C32.5682 60.0688 53.1435 49.1873 78.381 49.4516C103.619 49.7159 123.961 61.0259 123.818 74.7133C123.675 88.4007 103.099 99.2823 77.862 99.018Z" fill="#F3F7FB"/>
</g>
<g style="mix-blend-mode:multiply">
<path d="M77.8644 98.7761C52.8673 98.5143 32.7182 87.3146 32.8602 73.7608C33.0021 60.207 53.3813 49.4316 78.3784 49.6934C103.376 49.9552 123.525 61.1549 123.383 74.7088C123.241 88.2626 102.861 99.0379 77.8644 98.7761Z" fill="#F2F7FB"/>
</g>
<g style="mix-blend-mode:multiply">
<path d="M77.8668 98.5343C53.1146 98.2751 33.163 87.1857 33.3035 73.7654C33.444 60.3452 53.6236 49.6761 78.3758 49.9353C103.128 50.1945 123.08 61.2839 122.939 74.7041C122.799 88.1244 102.619 98.7935 77.8668 98.5343Z" fill="#F2F6FB"/>
</g>
<g style="mix-blend-mode:multiply">
<path d="M77.8694 98.2924C53.3576 98.0357 33.5997 87.053 33.7389 73.7619C33.8781 60.4708 53.8617 49.9043 78.3734 50.161C102.885 50.4177 122.643 61.4004 122.504 74.6915C122.365 87.9826 102.381 98.5491 77.8694 98.2924Z" fill="#F1F6FB"/>
</g>
<g style="mix-blend-mode:multiply">
<path d="M77.8718 98.0505C53.6049 97.7964 34.0445 86.9241 34.1823 73.7666C34.3201 60.609 54.1039 50.1488 78.3708 50.4029C102.638 50.657 122.198 61.5293 122.06 74.6869C121.923 87.8444 102.139 98.3047 77.8718 98.0505Z" fill="#F0F5FB"/>
</g>
<g style="mix-blend-mode:multiply">
<path d="M77.8743 97.8167C53.8479 97.5651 34.4812 86.7995 34.6177 73.7711C34.7541 60.7427 54.342 50.3851 78.3684 50.6367C102.395 50.8883 121.761 61.6539 121.625 74.6823C121.489 87.7107 101.901 98.0683 77.8743 97.8167Z" fill="#F0F5FA"/>
</g>
<g style="mix-blend-mode:multiply">
<path d="M77.877 97.5749C54.0955 97.3258 34.9262 86.6706 35.0613 73.7758C35.1963 60.8809 54.5845 50.6295 78.366 50.8786C102.148 51.1276 121.317 61.7828 121.182 74.6777C121.047 87.5725 101.659 97.8239 77.877 97.5749Z" fill="#EFF5FA"/>
</g>
<g style="mix-blend-mode:multiply">
<path d="M77.8793 97.341C54.3382 97.0945 35.3627 86.546 35.4964 73.7803C35.6301 61.0146 54.8223 50.8658 78.3634 51.1123C101.904 51.3589 120.88 61.9074 120.746 74.6731C120.613 87.4388 101.42 97.5876 77.8793 97.341Z" fill="#EEF4FA"/>
</g>
<g style="mix-blend-mode:multiply">
<path d="M77.8819 97.1073C54.5858 96.8633 35.8077 86.4252 35.94 73.793C36.0723 61.1609 55.0648 51.1183 78.361 51.3623C101.657 51.6063 120.435 62.0444 120.303 74.6765C120.171 87.3086 101.178 97.3512 77.8819 97.1073Z" fill="#EEF4FA"/>
</g>
<g style="mix-blend-mode:multiply">
<path d="M77.8842 96.8734C54.8285 96.632 36.2443 86.3006 36.3752 73.7976C36.5061 61.2946 55.3026 51.3546 78.3584 51.5961C101.414 51.8375 119.998 62.1689 119.867 74.6719C119.736 87.1749 100.94 97.1149 77.8842 96.8734Z" fill="#EDF3F9"/>
</g>
<g style="mix-blend-mode:multiply">
<path d="M77.8869 96.6235C55.076 96.3846 36.6892 86.1636 36.8188 73.7942C36.9483 61.4248 55.5451 51.591 78.356 51.8299C101.167 52.0688 119.554 62.2898 119.424 74.6592C119.295 87.0287 100.698 96.8624 77.8869 96.6235Z" fill="#ECF3F9"/>
</g>
<g style="mix-blend-mode:multiply">
<path d="M77.8893 96.3816C55.3189 96.1453 37.1259 86.0346 37.254 73.7987C37.3822 61.5629 55.783 51.8354 78.3534 52.0717C100.924 52.3081 119.117 62.4188 118.989 74.6547C118.861 86.8905 100.46 96.618 77.8893 96.3816Z" fill="#ECF2F9"/>
</g>
<g style="mix-blend-mode:multiply">
<path d="M77.8919 96.1479C55.5664 95.9141 37.5707 85.9101 37.6975 73.8034C37.8243 61.6967 56.0255 52.0718 78.351 52.3056C100.677 52.5394 118.672 62.5433 118.545 74.65C118.419 86.7568 100.217 96.3817 77.8919 96.1479Z" fill="#EBF2F9"/>
</g>
<g style="mix-blend-mode:multiply">
<path d="M77.8943 95.914C55.8092 95.6828 38.0074 85.7891 38.1328 73.816C38.2582 61.8429 56.2633 52.3242 78.3484 52.5555C100.433 52.7868 118.235 62.6804 118.11 74.6535C117.984 86.6267 99.9794 96.1453 77.8943 95.914Z" fill="#EAF1F9"/>
</g>
<g style="mix-blend-mode:multiply">
<path d="M77.8968 95.6803C56.0566 95.4515 38.4522 85.6647 38.5763 73.8206C38.7003 61.9766 56.5058 52.5606 78.346 52.7893C100.186 53.018 117.791 62.8049 117.667 74.6489C117.542 86.4929 99.737 95.909 77.8968 95.6803Z" fill="#E9F1F8"/>
</g>
<g style="mix-blend-mode:multiply">
<path d="M77.8992 95.4384C56.2995 95.2122 38.8889 85.5356 39.0115 73.8252C39.1342 62.1148 56.7436 52.805 78.3433 53.0312C99.9431 53.2574 117.354 62.9339 117.231 74.6443C117.108 86.3548 99.499 95.6646 77.8992 95.4384Z" fill="#E9F0F8"/>
</g>
<g style="mix-blend-mode:multiply">
<path d="M77.9018 95.1965C56.5469 94.9729 39.3337 85.4031 39.455 73.8218C39.5763 62.2405 56.9861 53.0333 78.341 53.2569C99.6958 53.4805 116.909 63.0503 116.788 74.6316C116.666 86.2129 99.2566 95.4201 77.9018 95.1965Z" fill="#E8F0F8"/>
</g>
<g style="mix-blend-mode:multiply">
<path d="M77.9042 94.9546C56.7898 94.7335 39.7704 85.2741 39.8903 73.8263C40.0102 62.3786 57.224 53.2776 78.3383 53.4988C99.4527 53.7199 116.472 63.1793 116.352 74.6271C116.232 86.0748 99.0186 95.1758 77.9042 94.9546Z" fill="#E7EFF8"/>
</g>
<g style="mix-blend-mode:multiply">
<path d="M77.9067 94.7289C57.0372 94.5104 40.2152 85.1577 40.3338 73.8391C40.4523 62.5205 57.4665 53.5221 78.336 53.7407C99.2055 53.9592 116.027 63.3119 115.909 74.6305C115.79 85.9491 98.7762 94.9475 77.9067 94.7289Z" fill="#E6EFF7"/>
</g>
<g style="mix-blend-mode:multiply">
<path d="M77.9094 94.487C57.2803 94.271 40.6521 85.0286 40.7693 73.8436C40.8864 62.6586 57.7045 53.7665 78.3336 53.9825C98.9626 54.1985 115.591 63.4409 115.474 74.6259C115.357 85.811 98.5385 94.7031 77.9094 94.487Z" fill="#E5EEF7"/>
</g>
<g style="mix-blend-mode:multiply">
<path d="M77.9602 94.3265C57.5749 94.1226 41.139 84.9979 41.2495 73.9459C41.36 62.8938 57.9752 54.0996 78.3604 54.3035C98.7457 54.5073 115.182 63.632 115.071 74.6841C114.961 85.7361 98.3455 94.5303 77.9602 94.3265Z" fill="#E5EEF7"/>
</g>
<g style="mix-blend-mode:multiply">
<path d="M77.9144 94.0114C57.7706 93.8004 41.5337 84.7751 41.648 73.8528C41.7624 62.9305 58.1848 54.2472 78.3286 54.4582C98.4723 54.6691 114.709 63.6944 114.595 74.6167C114.481 85.539 98.0581 94.2223 77.9144 94.0114Z" fill="#E4EDF7"/>
</g>
<g style="mix-blend-mode:multiply">
<path d="M77.9168 93.7695C58.018 93.5611 41.9784 84.6462 42.0914 73.8575C42.2044 63.0687 58.4271 54.4917 78.326 54.7001C98.2248 54.9084 114.264 63.8234 114.151 74.6121C114.038 85.4008 97.8156 93.9779 77.9168 93.7695Z" fill="#E3EDF6"/>
</g>
<g style="mix-blend-mode:multiply">
<path d="M77.9193 93.5276C58.2609 93.3218 42.4152 84.5135 42.5268 73.8539C42.6384 63.1943 58.6652 54.7199 78.3236 54.9258C97.9819 55.1316 113.828 63.9399 113.716 74.5995C113.604 85.2591 97.5777 93.7335 77.9193 93.5276Z" fill="#E2ECF6"/>
</g>
<g style="mix-blend-mode:multiply">
<path d="M77.9217 93.2858C58.5083 93.0825 42.8599 84.3846 42.9701 73.8586C43.0804 63.3326 58.9074 54.9644 78.3209 55.1677C97.7344 55.371 113.383 64.0688 113.273 74.5948C113.162 85.1209 97.3352 93.4891 77.9217 93.2858Z" fill="#E1EBF6"/>
</g>
<g style="mix-blend-mode:multiply">
<path d="M77.9243 93.052C58.7512 92.8512 43.2967 84.26 43.4055 73.8631C43.5144 63.4662 59.1455 55.2007 78.3186 55.4014C97.4916 55.6022 112.946 64.1934 112.837 74.5903C112.728 84.9872 97.0973 93.2527 77.9243 93.052Z" fill="#E0EBF6"/>
</g>
<g style="mix-blend-mode:multiply">
<path d="M77.9267 92.8182C58.9986 92.62 43.7414 84.1392 43.8489 73.8759C43.9564 63.6125 59.3878 55.4532 78.3159 55.6514C97.2441 55.8496 112.501 64.3304 112.394 74.5937C112.286 84.857 96.8549 93.0164 77.9267 92.8182Z" fill="#DFEAF5"/>
</g>
<g style="mix-blend-mode:multiply">
<path d="M77.9292 92.5843C59.2415 92.3886 44.1782 84.0146 44.2843 73.8804C44.3904 63.7462 59.6258 55.6895 78.3135 55.8852C97.0013 56.0809 112.065 64.4549 111.958 74.5891C111.852 84.7233 96.6169 92.78 77.9292 92.5843Z" fill="#DEEAF5"/>
</g>
<g style="mix-blend-mode:multiply">
<path d="M77.9317 92.3425C59.4889 92.1494 44.6229 83.8857 44.7276 73.8851C44.8324 63.8845 59.8681 55.9339 78.3109 56.1271C96.7537 56.3202 111.62 64.5839 111.515 74.5845C111.41 84.5851 96.3745 92.5356 77.9317 92.3425Z" fill="#DDE9F5"/>
</g>
<g style="mix-blend-mode:multiply">
<path d="M77.9343 92.1006C59.732 91.91 45.0598 83.7566 45.1631 73.8896C45.2665 64.0226 60.1062 56.1783 78.3085 56.3689C96.5109 56.5595 111.183 64.7129 111.08 74.5799C110.976 84.447 96.1367 92.2912 77.9343 92.1006Z" fill="#DCE8F4"/>
</g>
<g style="mix-blend-mode:multiply">
<path d="M77.9839 91.9399C60.0255 91.7603 45.5462 83.7202 45.6436 73.9817C45.741 64.2433 60.3781 56.4943 78.3366 56.6739C96.2951 56.8535 110.774 64.8936 110.677 74.6321C110.58 84.3705 95.9424 92.1195 77.9839 91.9399Z" fill="#DBE8F4"/>
</g>
<g style="mix-blend-mode:multiply">
<path d="M77.9393 91.6169C60.2223 91.4313 45.9413 83.4951 46.0419 73.8907C46.1425 64.2864 60.5865 56.651 78.3035 56.8365C96.0206 57.0221 110.302 64.9583 110.201 74.5626C110.1 84.167 95.6563 91.8024 77.9393 91.6169Z" fill="#DAE7F4"/>
</g>
<g style="mix-blend-mode:multiply">
<path d="M77.9418 91.3831C60.4697 91.2001 46.3862 83.3706 46.4854 73.8954C46.5846 64.4202 60.829 56.8874 78.3011 57.0703C95.7733 57.2533 109.857 65.0828 109.758 74.558C109.658 84.0332 95.4139 91.5661 77.9418 91.3831Z" fill="#D9E6F3"/>
</g>
<g style="mix-blend-mode:multiply">
<path d="M77.9443 91.1493C60.7126 90.9688 46.8228 83.2496 46.9207 73.908C47.0185 64.5664 61.0668 57.1398 78.2985 57.3203C95.5302 57.5007 109.42 65.2199 109.322 74.5615C109.224 83.9031 95.176 91.3297 77.9443 91.1493Z" fill="#D8E6F3"/>
</g>
<g style="mix-blend-mode:multiply">
<path d="M77.9468 90.9155C60.96 90.7376 47.2677 83.1252 47.3641 73.9127C47.4606 64.7002 61.3093 57.3762 78.2961 57.5541C95.2829 57.732 108.975 65.3444 108.879 74.5569C108.782 83.7694 94.9336 91.0934 77.9468 90.9155Z" fill="#D7E5F3"/>
</g>
<g style="mix-blend-mode:multiply">
<path d="M77.9492 90.6736C61.2029 90.4982 47.7043 82.9961 47.7994 73.9172C47.8945 64.8383 61.5472 57.6205 78.2935 57.7959C95.0399 57.9713 108.538 65.4734 108.443 74.5523C108.348 83.6312 94.6956 90.849 77.9492 90.6736Z" fill="#D6E4F2"/>
</g>
<g style="mix-blend-mode:multiply">
<path d="M77.9517 90.4318C61.4503 90.2589 48.1492 82.8636 48.2429 73.9138C48.3366 64.964 61.7897 57.8489 78.2911 58.0217C94.7926 58.1945 108.094 65.5898 108 74.5396C107.906 83.4894 94.4532 90.6046 77.9517 90.4318Z" fill="#D5E4F2"/>
</g>
<g style="mix-blend-mode:multiply">
<path d="M77.9542 90.1899C61.6931 90.0196 48.5858 82.7346 48.6782 73.9184C48.7705 65.1021 62.0275 58.0932 78.2885 58.2635C94.5495 58.4338 107.657 65.7188 107.565 74.535C107.472 83.3513 94.2152 90.3602 77.9542 90.1899Z" fill="#D4E3F2"/>
</g>
<g style="mix-blend-mode:multiply">
<path d="M77.9567 89.9561C61.9406 89.7883 49.0307 82.6101 49.1216 73.923C49.2126 65.2359 62.27 58.3296 78.2861 58.4973C94.3023 58.6651 107.212 65.8433 107.121 74.5304C107.03 83.2175 93.9728 90.1238 77.9567 89.9561Z" fill="#D3E2F1"/>
</g>
<g style="mix-blend-mode:multiply">
<path d="M77.9591 89.7223C62.1834 89.5571 49.4673 82.4891 49.5569 73.9356C49.6465 65.3821 62.5078 58.5821 78.2835 58.7473C94.0592 58.9125 106.775 65.9804 106.686 74.5339C106.596 83.0874 93.7348 89.8875 77.9591 89.7223Z" fill="#D2E1F1"/>
</g>
<g style="mix-blend-mode:multiply">
<path d="M77.9618 89.4804C62.431 89.3178 49.9123 82.3602 50.0005 73.9403C50.0887 65.5204 62.7503 58.8265 78.2811 58.9892C93.8119 59.1518 106.331 66.1093 106.242 74.5293C106.154 82.9492 93.4926 89.6431 77.9618 89.4804Z" fill="#D0E1F1"/>
</g>
<g style="mix-blend-mode:multiply">
<path d="M77.9643 89.2466C62.674 89.0865 50.3491 82.2356 50.4359 73.9448C50.5227 65.654 62.9884 59.0628 78.2787 59.2229C93.5691 59.3831 105.894 66.2339 105.807 74.5247C105.72 82.8155 93.2547 89.4067 77.9643 89.2466Z" fill="#CFE0F0"/>
</g>
<g style="mix-blend-mode:multiply">
<path d="M77.9667 88.9967C62.9213 88.8391 50.7938 82.0987 50.8792 73.9414C50.9647 65.7842 63.2307 59.2992 78.2761 59.4568C93.3216 59.6143 105.449 66.3548 105.364 74.512C105.278 82.6692 93.0122 89.1542 77.9667 88.9967Z" fill="#CEDFF0"/>
</g>
<g style="mix-blend-mode:multiply">
<path d="M77.9693 88.7628C63.1643 88.6078 51.2306 81.9741 51.3147 73.946C51.3987 65.9179 63.4687 59.5355 78.2737 59.6905C93.0787 59.8456 105.012 66.4793 104.928 74.5074C104.844 82.5355 92.7743 88.9179 77.9693 88.7628Z" fill="#CDDEF0"/>
</g>
<g style="mix-blend-mode:multiply">
<path d="M77.9717 88.521C63.4116 88.3685 51.6753 81.8451 51.758 73.9506C51.8407 66.0561 63.711 59.7799 78.2711 59.9324C92.8312 60.0849 104.568 66.6083 104.485 74.5028C104.402 82.3973 92.5318 88.6735 77.9717 88.521Z" fill="#CCDEEF"/>
</g>
<g style="mix-blend-mode:multiply">
<path d="M77.9742 88.2872C63.6546 88.1372 52.1121 81.7206 52.1934 73.9552C52.2747 66.1898 63.949 60.0162 78.2687 60.1662C92.5884 60.3162 104.131 66.7328 104.05 74.4982C103.968 82.2636 92.2939 88.4371 77.9742 88.2872Z" fill="#CBDDEF"/>
</g>
<g style="mix-blend-mode:multiply">
<path d="M77.9767 88.0453C63.9019 87.8979 52.5568 81.5916 52.6367 73.9598C52.7167 66.328 64.1913 60.2607 78.2661 60.4081C92.3409 60.5555 103.686 66.8618 103.606 74.4936C103.526 82.1254 92.0514 88.1927 77.9767 88.0453Z" fill="#C9DCEF"/>
</g>
<g style="mix-blend-mode:multiply">
<path d="M77.9792 87.8115C64.1448 87.6666 52.9936 81.4671 53.0722 73.9644C53.1507 66.4617 64.4294 60.497 78.2637 60.6419C92.098 60.7868 103.249 66.9863 103.171 74.489C103.092 81.9917 91.8135 87.9564 77.9792 87.8115Z" fill="#C8DBEE"/>
</g>
<g style="mix-blend-mode:multiply">
<path d="M78.0268 87.6586C64.4366 87.5227 53.4793 81.4384 53.553 74.0689C53.6267 66.6994 64.7035 60.8353 78.2937 60.9713C91.8839 61.1072 102.841 67.1915 102.767 74.561C102.694 81.9305 91.617 87.7945 78.0268 87.6586Z" fill="#C7DAEE"/>
</g>
<g style="mix-blend-mode:multiply">
<path d="M77.9843 87.3278C64.6353 87.188 53.8752 81.2091 53.951 73.9736C54.0268 66.7381 64.9097 60.9858 78.2587 61.1256C91.6077 61.2654 102.368 67.2443 102.292 74.4798C102.216 81.7154 91.3333 87.4676 77.9843 87.3278Z" fill="#C5D9ED"/>
</g>
<g style="mix-blend-mode:multiply">
<path d="M77.9866 87.094C64.8825 86.9568 54.3198 81.0846 54.3942 73.9782C54.4687 66.8718 65.152 61.2222 78.2561 61.3594C91.3602 61.4967 101.923 67.3688 101.848 74.4752C101.774 81.5816 91.0907 87.2312 77.9866 87.094Z" fill="#C4D9ED"/>
</g>
<g style="mix-blend-mode:multiply">
<path d="M78.0341 86.9411C65.1697 86.8124 54.7976 81.0552 54.8673 74.082C54.9371 67.1088 65.4222 61.5602 78.2866 61.6888C91.151 61.8175 101.523 67.5747 101.453 74.5479C101.384 81.5211 90.8984 87.0697 78.0341 86.9411Z" fill="#C3D8ED"/>
</g>
<g style="mix-blend-mode:multiply">
<path d="M77.9915 86.6264C65.3728 86.4942 55.2013 80.8392 55.273 73.9955C55.3447 67.1518 65.6323 61.711 78.2511 61.8432C90.8698 61.9753 101.041 67.6304 100.97 74.4741C100.898 81.3178 90.6103 86.7585 77.9915 86.6264Z" fill="#C2D7EC"/>
</g>
<g style="mix-blend-mode:multiply">
<path d="M78.0386 86.4654C65.6596 86.3416 55.6789 80.8013 55.746 74.0908C55.8131 67.3803 65.9026 62.0407 78.2816 62.1645C90.6606 62.2883 100.641 67.8286 100.574 74.5391C100.507 81.2496 90.4176 86.5892 78.0386 86.4654Z" fill="#C0D6EC"/>
</g>
<g style="mix-blend-mode:multiply">
<path d="M100.106 74.4542C100.033 81.0333 90.1403 86.266 78.0061 86.137C65.8718 86.008 56.0918 80.5737 56.1643 73.9946C56.2369 67.4155 66.1217 62.1828 78.256 62.3118C90.3903 62.4408 100.154 67.867 100.106 74.4542Z" fill="#BFD5EB"/>
</g>
<g style="mix-blend-mode:multiply">
<path d="M77.9992 85.9088C66.1062 85.7843 56.5197 80.4567 56.5873 74.0092C56.6548 67.5618 66.3507 62.4361 78.2437 62.5607C90.1367 62.6852 99.7231 68.0129 99.6556 74.4603C99.5881 80.9077 89.8921 86.0334 77.9992 85.9088Z" fill="#BDD4EB"/>
</g>
<g style="mix-blend-mode:multiply">
<path d="M78.0017 85.667C66.3536 85.545 56.9646 80.3241 57.0308 74.0058C57.0969 67.6876 66.5932 62.6645 78.2413 62.7864C89.8894 62.9084 99.2784 68.1293 99.2122 74.4476C99.1461 80.7659 89.6498 85.789 78.0017 85.667Z" fill="#BCD3EA"/>
</g>
<g style="mix-blend-mode:multiply">
<path d="M78.0041 85.4251C66.5965 85.3056 57.4012 80.1951 57.466 74.0104C57.5308 67.8257 66.831 62.9088 78.2387 63.0283C89.6463 63.1478 98.8415 68.2583 98.7768 74.443C98.712 80.6277 89.4118 85.5446 78.0041 85.4251Z" fill="#BBD2EA"/>
</g>
<g style="mix-blend-mode:multiply">
<path d="M78.0066 85.1913C66.8438 85.0744 57.846 80.0742 57.9093 74.0231C57.9727 67.972 67.0733 63.1613 78.236 63.2782C89.3988 63.3951 98.3966 68.3953 98.3333 74.4465C98.2699 80.4976 89.1693 85.3082 78.0066 85.1913Z" fill="#B9D1EA"/>
</g>
<g style="mix-blend-mode:multiply">
<path d="M78.0091 84.9575C67.0868 84.8431 58.2828 79.9497 58.3448 74.0277C58.4068 68.1057 67.3113 63.3976 78.2337 63.512C89.156 63.6264 97.96 68.5199 97.898 74.4419C97.8359 80.3639 88.9314 85.0719 78.0091 84.9575Z" fill="#B8D0E9"/>
</g>
<g style="mix-blend-mode:multiply">
<path d="M78.0118 84.7157C67.3343 84.6038 58.7277 79.8207 58.7883 74.0323C58.849 68.2439 67.5539 63.6421 78.2313 63.7539C88.9087 63.8657 97.5153 68.6488 97.4547 74.4372C97.3941 80.2257 88.6892 84.8275 78.0118 84.7157Z" fill="#B6D0E9"/>
</g>
<g style="mix-blend-mode:multiply">
<path d="M97.0099 74.422C96.9534 80.0658 88.4473 84.5809 78.0062 84.468C67.5651 84.3551 59.1638 79.6869 59.2202 73.9866C59.2767 68.2863 67.7908 63.8276 78.2239 63.9405C88.657 64.0534 97.0744 68.762 97.0099 74.422Z" fill="#B5CFE8"/>
</g>
<g style="mix-blend-mode:multiply">
<path d="M78.0167 84.2319C67.8246 84.1252 59.6092 79.5592 59.6671 74.0335C59.725 68.5077 68.0342 64.1148 78.2263 64.2215C88.4184 64.3283 96.6338 68.8943 96.5759 74.42C96.518 79.9457 88.2088 84.3387 78.0167 84.2319Z" fill="#B3CEE8"/>
</g>
<g style="mix-blend-mode:multiply">
<path d="M78.019 83.9981C68.0673 83.8939 60.0458 79.4346 60.1023 74.038C60.1588 68.6414 68.272 64.3511 78.2236 64.4553C88.1753 64.5595 96.1969 69.0188 96.1403 74.4154C96.0838 79.812 87.9706 84.1023 78.019 83.9981Z" fill="#B2CDE7"/>
</g>
<g style="mix-blend-mode:multiply">
<path d="M78.0217 83.7562C68.3149 83.6546 60.4907 79.3057 60.5458 74.0427C60.601 68.7796 68.5145 64.5955 78.2213 64.6972C87.928 64.7988 95.7522 69.1478 95.6971 74.4108C95.642 79.6738 87.7284 83.8579 78.0217 83.7562Z" fill="#B0CCE7"/>
</g>
<g style="mix-blend-mode:multiply">
<path d="M78.0242 83.5305C68.5579 83.4313 60.9275 79.1891 60.9813 74.0553C61.035 68.9214 68.7526 64.8399 78.2189 64.939C87.6852 65.0382 95.3155 69.2804 95.2618 74.4143C95.208 79.5481 87.4905 83.6296 78.0242 83.5305Z" fill="#AFCBE6"/>
</g>
<g style="mix-blend-mode:multiply">
<path d="M78.0266 83.2886C68.8052 83.1921 61.3722 79.0602 61.4246 74.0599C61.477 69.0596 68.9948 65.0843 78.2162 65.1809C87.4377 65.2775 94.8706 69.4093 94.8183 74.4096C94.7659 79.4099 87.248 83.3852 78.0266 83.2886Z" fill="#ADCAE6"/>
</g>
<g style="mix-blend-mode:multiply">
<path d="M78.0291 83.0468C69.0481 82.9527 61.8089 78.9312 61.8599 74.0645C61.9108 69.1977 69.2327 65.3287 78.2136 65.4228C87.1946 65.5168 94.4338 69.5383 94.3828 74.4051C94.3318 79.2718 87.01 83.1408 78.0291 83.0468Z" fill="#ACC9E5"/>
</g>
<g style="mix-blend-mode:multiply">
<path d="M93.938 74.3897C93.8896 79.1306 86.7622 82.8958 78.0304 82.7991C69.2985 82.7023 62.2518 78.7677 62.3001 74.0591C62.3485 69.3506 69.4678 65.5531 78.2077 65.6498C86.9477 65.7466 93.9864 69.6569 93.938 74.3897Z" fill="#AAC8E5"/>
</g>
<g style="mix-blend-mode:multiply">
<path d="M78.034 82.563C69.5384 82.474 62.6904 78.6696 62.7386 74.0656C62.7868 69.4616 69.713 65.8014 78.2086 65.8904C86.7042 65.9793 93.5522 69.7838 93.504 74.3878C93.4558 78.9918 86.5296 82.652 78.034 82.563Z" fill="#A9C7E5"/>
</g>
<g style="mix-blend-mode:multiply">
<path d="M78.0365 82.3292C69.7858 82.2428 63.1353 78.5452 63.1821 74.0703C63.229 69.5954 69.9555 66.0378 78.2062 66.1242C86.457 66.2106 93.1075 69.9083 93.0607 74.3832C93.0138 78.8581 86.2873 82.4156 78.0365 82.3292Z" fill="#A7C6E4"/>
</g>
<g style="mix-blend-mode:multiply">
<path d="M78.039 82.0873C70.0287 82.0035 63.5719 78.4161 63.6174 74.0748C63.6628 69.7335 70.1933 66.2822 78.2036 66.366C86.2139 66.4499 92.6707 70.0373 92.6252 74.3786C92.5797 78.7199 86.0493 82.1712 78.039 82.0873Z" fill="#A5C4E4"/>
</g>
<g style="mix-blend-mode:multiply">
<path d="M78.0415 81.8616C70.2761 81.7803 64.0168 78.2997 64.0609 74.0875C64.105 69.8753 70.4358 66.5266 78.2012 66.6079C85.9666 66.6892 92.226 70.1698 92.1818 74.382C92.1377 78.5942 85.8069 81.9429 78.0415 81.8616Z" fill="#A4C3E3"/>
</g>
<g style="mix-blend-mode:multiply">
<path d="M78.0442 81.6197C70.5192 81.5409 64.4537 78.1707 64.4964 74.0921C64.5391 70.0135 70.6739 66.771 78.1988 66.8498C85.7238 66.9286 91.7893 70.2988 91.7466 74.3774C91.7039 78.4561 85.5691 81.6985 78.0442 81.6197Z" fill="#A2C2E3"/>
</g>
<g style="mix-blend-mode:multiply">
<path d="M78.0464 81.386C70.7664 81.3097 64.8983 78.0462 64.9396 74.0967C64.981 70.1473 70.9162 67.0074 78.1962 67.0836C85.4763 67.1598 91.3444 70.4233 91.303 74.3728C91.2617 78.3223 85.3265 81.4622 78.0464 81.386Z" fill="#A0C1E2"/>
</g>
<g style="mix-blend-mode:multiply">
<path d="M90.8579 74.3574C90.8176 78.1711 85.0851 81.2107 78.0464 81.1381C71.0077 81.0656 65.3316 77.9131 65.3719 74.0914C65.4122 70.2697 71.1528 67.2381 78.1915 67.3187C85.2302 67.3994 90.8983 70.5438 90.8579 74.3574Z" fill="#9FC0E1"/>
</g>
<g style="mix-blend-mode:multiply">
<path d="M78.0516 80.8942C71.2568 80.823 65.7799 77.7802 65.8185 74.0979C65.857 70.4155 71.3965 67.4881 78.1912 67.5593C84.9859 67.6304 90.4629 70.6732 90.4243 74.3556C90.3858 78.0379 84.8463 80.9653 78.0516 80.8942Z" fill="#9DBFE1"/>
</g>
<g style="mix-blend-mode:multiply">
<path d="M78.0541 80.6603C71.4998 80.5917 66.2167 77.6556 66.2539 74.1024C66.2911 70.5492 71.6345 67.7244 78.1888 67.793C84.7431 67.8617 90.0262 70.7978 89.989 74.351C89.9518 77.9042 84.6084 80.729 78.0541 80.6603Z" fill="#9BBEE0"/>
</g>
<g style="mix-blend-mode:multiply">
<path d="M78.0565 80.4266C71.7471 80.3605 66.6614 77.5348 66.6972 74.1151C66.733 70.6955 71.8768 67.9769 78.1862 68.043C84.4956 68.1091 89.5813 70.9348 89.5455 74.3544C89.5097 77.774 84.3659 80.4926 78.0565 80.4266Z" fill="#9ABDE0"/>
</g>
<g style="mix-blend-mode:multiply">
<path d="M78.059 80.1927C71.9901 80.1292 67.0982 77.4102 67.1326 74.1197C67.1671 70.8292 72.1149 68.2132 78.1838 68.2768C84.2528 68.3403 89.1447 71.0593 89.1102 74.3498C89.0758 77.6403 84.128 80.2563 78.059 80.1927Z" fill="#98BCDF"/>
</g>
<g style="mix-blend-mode:multiply">
<path d="M88.6649 74.3171C88.6649 77.4777 83.8837 79.961 78.0544 79.961C72.2251 79.961 67.573 77.2922 67.573 74.1317C67.573 70.9711 72.3541 68.4878 78.1754 68.4878C83.9966 68.4878 88.6971 71.1808 88.6649 74.3171Z" fill="#96BADF"/>
</g>
<g style="mix-blend-mode:multiply">
<path d="M78.1055 79.7895C72.5216 79.7337 68.0195 77.2338 68.0497 74.2058C68.08 71.1779 72.6312 68.7685 78.2151 68.8243C83.799 68.8801 88.3011 71.3801 88.2709 74.408C88.2406 77.436 83.6894 79.8454 78.1055 79.7895Z" fill="#94B9DE"/>
</g>
<g style="mix-blend-mode:multiply">
<path d="M78.0664 79.4671C72.7277 79.4112 68.4244 77.0197 68.4547 74.1255C68.485 71.2313 72.8375 68.9304 78.1762 68.9863C83.5149 69.0422 87.8182 71.4337 87.7879 74.3279C87.7576 77.2222 83.4051 79.5231 78.0664 79.4671Z" fill="#92B8DE"/>
</g>
<g style="mix-blend-mode:multiply">
<path d="M87.3426 74.3171C87.3426 77.0745 83.1581 79.2757 78.0625 79.2192C72.9669 79.1628 68.863 76.881 68.8872 74.1236C68.9114 71.3662 73.0717 69.157 78.1673 69.2135C83.2629 69.2699 87.3748 71.5597 87.3426 74.3171Z" fill="#91B7DD"/>
</g>
<g style="mix-blend-mode:multiply">
<path d="M86.9074 74.3171C86.9074 76.9456 82.9244 79.0419 78.0384 78.9935C73.1525 78.9451 69.2663 76.7682 69.2985 74.1559C69.3308 71.5436 73.2815 69.4312 78.1674 69.4876C83.0534 69.5441 86.9315 71.6887 86.9074 74.3171Z" fill="#8FB6DD"/>
</g>
<g style="mix-blend-mode:multiply">
<path d="M86.4639 74.3171C86.4639 76.8246 82.6825 78.808 78.0707 78.7596C73.4588 78.7113 69.742 76.6472 69.7661 74.1478C69.7903 71.6484 73.5556 69.6569 78.1674 69.7053C82.7793 69.7537 86.4962 71.8096 86.4639 74.3171Z" fill="#8DB5DC"/>
</g>
<g style="mix-blend-mode:multiply">
<path d="M86.0284 74.3171C86.0284 76.6875 82.4406 78.5661 78.0706 78.5258C73.7007 78.4855 70.1853 76.5182 70.2095 74.1478C70.2337 71.7774 73.7974 69.8988 78.1593 69.9471C82.5212 69.9955 86.0526 71.9386 86.0284 74.3171Z" fill="#8BB3DB"/>
</g>
<g style="mix-blend-mode:multiply">
<path d="M85.593 74.3171C85.593 76.5585 82.2067 78.3485 78.0786 78.292C73.9505 78.2356 70.6287 76.3973 70.6529 74.1639C70.6771 71.9306 74.0392 70.1326 78.1673 70.1891C82.2954 70.2455 85.593 72.0677 85.593 74.3171Z" fill="#89B2DB"/>
</g>
<g style="mix-blend-mode:multiply">
<path d="M85.1498 74.3171C85.1498 76.4215 81.9247 78.0905 78.0788 78.0501C74.2329 78.0098 71.0643 76.2764 71.0885 74.1639C71.1127 72.0515 74.3136 70.3906 78.1594 70.4309C82.0053 70.4713 85.174 72.1967 85.1498 74.3171Z" fill="#87B1DA"/>
</g>
<g style="mix-blend-mode:multiply">
<path d="M84.7062 74.3171C84.7062 76.2925 81.723 77.8647 78.0787 77.8244C74.4343 77.7841 71.5076 76.1554 71.5237 74.1801C71.5399 72.2047 74.515 70.6406 78.1512 70.6728C81.7875 70.7051 84.7303 72.3176 84.7062 74.3171Z" fill="#85B0DA"/>
</g>
<g style="mix-blend-mode:multiply">
<path d="M78.0865 77.5645C74.6891 77.5289 71.9507 76.0057 71.97 74.1623C71.9893 72.3189 74.759 70.8534 78.1564 70.889C81.5538 70.9245 84.2922 72.4477 84.2729 74.2911C84.2536 76.1345 81.4838 77.6 78.0865 77.5645Z" fill="#84AED9"/>
</g>
<g style="mix-blend-mode:multiply">
<path d="M83.8273 74.3171C83.8273 76.0264 81.2392 77.389 78.0867 77.3568C74.9342 77.3245 72.3864 75.9055 72.4025 74.1962C72.4187 72.4869 74.9907 71.1243 78.1512 71.1566C81.3118 71.1888 83.8434 72.5756 83.8273 74.3171Z" fill="#82ADD9"/>
</g>
<g style="mix-blend-mode:multiply">
<path d="M83.392 74.3171C83.392 75.9297 80.9732 77.1552 78.0868 77.1229C75.2004 77.0907 72.8299 75.7926 72.8461 74.2123C72.8622 72.632 75.2649 71.3743 78.1432 71.4065C81.0216 71.4388 83.4081 72.7046 83.392 74.3171Z" fill="#80ACD8"/>
</g>
<g style="mix-blend-mode:multiply">
<path d="M82.9486 74.3171C82.9486 75.7604 80.7556 76.9133 78.1111 76.8891C75.4665 76.8649 73.2735 75.6636 73.2735 74.2123C73.2735 72.761 75.4665 71.6161 78.1111 71.6484C80.7556 71.6807 82.9648 72.8255 82.9486 74.3171Z" fill="#7EAAD7"/>
</g>
<g style="mix-blend-mode:multiply">
<path d="M82.5132 74.2688C82.5132 75.591 80.5217 76.6311 78.0948 76.6069C75.668 76.5827 73.7087 75.4943 73.7249 74.1881C73.741 72.882 75.7163 71.8258 78.1432 71.85C80.5701 71.8741 82.5212 72.9545 82.5132 74.2688Z" fill="#7CA9D7"/>
</g>
<g style="mix-blend-mode:multiply">
<path d="M82.0697 74.2687C82.0697 75.4539 80.2798 76.3892 78.0948 76.3731C75.9098 76.357 74.1522 75.3653 74.1603 74.18C74.1683 72.9948 75.9582 72.0596 78.1432 72.0838C80.3282 72.1079 82.0858 73.0835 82.0697 74.2687Z" fill="#7AA8D6"/>
</g>
<g style="mix-blend-mode:multiply">
<path d="M81.6342 74.2607C81.6342 75.3169 80.0217 76.1554 78.0947 76.1312C76.1678 76.107 74.5875 75.2443 74.6036 74.1881C74.6197 73.1319 76.2161 72.3015 78.1351 72.3176C80.054 72.3337 81.6423 73.2125 81.6342 74.2607Z" fill="#78A7D5"/>
</g>
<g style="mix-blend-mode:multiply">
<path d="M81.1909 74.2607C81.1909 75.1798 79.7961 75.8732 78.1029 75.8732C76.4097 75.8732 75.031 75.067 75.0391 74.1801C75.0472 73.2932 76.4339 72.5675 78.1351 72.5675C79.8364 72.5675 81.1989 73.3335 81.1909 74.2607Z" fill="#76A5D5"/>
</g>
<g style="mix-blend-mode:multiply">
<path d="M80.7556 74.2526C80.7556 75.0589 79.5543 75.6716 78.103 75.6555C76.6517 75.6394 75.4746 74.9863 75.4826 74.1962C75.4907 73.406 76.6759 72.7771 78.1353 72.7933C79.5946 72.8094 80.7556 73.4625 80.7556 74.2526Z" fill="#74A4D4"/>
</g>
<g style="mix-blend-mode:multiply">
<path d="M80.312 74.2445C80.312 74.9057 79.3203 75.4298 78.1028 75.4136C76.8853 75.3975 75.9098 74.8573 75.9178 74.2042C75.9259 73.5512 76.9176 73.019 78.127 73.0351C79.3364 73.0513 80.32 73.5915 80.312 74.2445Z" fill="#71A3D4"/>
</g>
<g style="mix-blend-mode:multiply">
<path d="M79.8767 74.2446C79.8767 74.7687 79.0704 75.1879 78.111 75.1798C77.1515 75.1718 76.3533 74.7364 76.3614 74.2043C76.3695 73.6721 77.1677 73.2609 78.1271 73.269C79.0866 73.2771 79.8767 73.7205 79.8767 74.2446Z" fill="#6FA1D3"/>
</g>
<g style="mix-blend-mode:multiply">
<path d="M79.4333 74.2365C79.4333 74.6316 78.8366 74.946 78.111 74.9379C77.3854 74.9299 76.7968 74.6074 76.7968 74.2123C76.7968 73.8172 77.3934 73.5028 78.1271 73.5108C78.8608 73.5189 79.4413 73.8414 79.4333 74.2365Z" fill="#6DA0D2"/>
</g>
<g style="mix-blend-mode:multiply">
<path d="M78.9978 74.2365C78.9978 74.4945 78.5947 74.7041 78.1109 74.7041C77.6271 74.7041 77.2321 74.4784 77.2401 74.2123C77.2482 73.9463 77.6352 73.7447 78.119 73.7447C78.6027 73.7447 78.9978 73.9704 78.9978 74.2365Z" fill="#6B9ED2"/>
</g>
<g style="mix-blend-mode:multiply">
<path d="M78.5544 74.2285C78.5544 74.3575 78.3609 74.4623 78.111 74.4623C77.8611 74.4623 77.6756 74.3494 77.6756 74.2204C77.6756 74.0914 77.8772 73.9866 78.1191 73.9866C78.3609 73.9866 78.5544 74.0995 78.5544 74.2285Z" fill="#699DD1"/>
</g>
</g>
</g>
<path d="M25.8004 28.3197L74.3376 0.293964C74.5755 0.144946 74.843 0.0496972 75.1216 0.0148805C75.4001 -0.0199362 75.6829 0.00651973 75.9501 0.0923979H76.0388L77.7884 0.769661L76.2162 1.53561V1.6243L84.8755 40.6878C85.0732 41.5589 85.0105 42.469 84.6952 43.3047C84.3798 44.1405 83.8256 44.8651 83.1017 45.3884L35.7256 72.7369L35.8949 74.7445L33.984 74.0027C33.6204 73.8045 33.307 73.5256 33.068 73.1873C32.8289 72.8491 32.6707 72.4605 32.6053 72.0516L24.0347 33.0444C23.8277 32.1706 23.885 31.2549 24.1994 30.4137C24.5138 29.5725 25.071 28.8436 25.8004 28.3197Z" fill="#173D7A"/>
<path d="M25.8006 28.3197L74.3377 0.293964C74.5756 0.144946 74.8432 0.0496972 75.1217 0.0148805C75.4002 -0.0199362 75.683 0.00651973 75.9503 0.0923979H76.0389L77.7885 0.769661L76.2163 1.53561V1.6243L82.094 28.36L58.4382 46.9283L24.2767 30.287C24.5447 29.4763 25.0826 28.7819 25.8006 28.3197Z" fill="#396CAA"/>
<path d="M27.6308 33.8829L23.9381 32.351C23.8944 31.6619 24.0057 30.9717 24.2638 30.3313C24.5219 29.6909 24.9203 29.1164 25.4297 28.6503L31.2832 31.0691L27.6308 33.8829Z" fill="#274F89"/>
<path d="M37.588 74.559L86.1252 46.5332C86.8493 46.0103 87.4031 45.2855 87.7172 44.4493C88.0312 43.6132 88.0917 42.703 87.8909 41.8327L79.3203 2.83366C78.9252 1.02762 77.4901 0.213298 76.0952 1.00344L27.5581 29.0292C26.8346 29.5508 26.2812 30.2743 25.9671 31.109C25.653 31.9437 25.5922 32.8526 25.7924 33.7217L34.363 72.7288C34.7742 74.5267 36.2093 75.3491 37.588 74.559Z" fill="#D4ECFF"/>
<path d="M27.1067 28.8599L75.6519 0.834135C75.9346 0.652429 76.2606 0.549197 76.5964 0.535029C76.9322 0.520861 77.2657 0.596265 77.5627 0.753508C77.0648 0.648328 76.5455 0.737764 76.1115 1.00345L27.5743 29.0292C26.8509 29.5508 26.2974 30.2743 25.9833 31.109C25.6692 31.9437 25.6084 32.8526 25.8086 33.7217L34.3792 72.7288C34.444 73.1224 34.5937 73.4972 34.8178 73.8272C35.042 74.1571 35.3352 74.4344 35.6773 74.6396C35.2145 74.5 34.8022 74.2292 34.4903 73.86C34.1783 73.4908 33.9801 73.039 33.9196 72.5595L25.341 33.5524C24.9459 31.7544 25.736 29.65 27.1067 28.8599Z" fill="white"/>
<path d="M38.6362 71.858L84.2869 45.5334C84.9476 45.0543 85.4527 44.3914 85.7394 43.6273C86.0262 42.8631 86.0818 42.0316 85.8995 41.2361L77.99 5.2847C77.6352 3.67217 76.321 2.86591 75.0632 3.61573L29.4125 29.9322C28.7511 30.4107 28.2453 31.0735 27.9585 31.8379C27.6717 32.6022 27.6166 33.4341 27.8 34.2296L35.7095 70.2455C36.0642 71.858 37.3784 72.5998 38.6362 71.858Z" fill="white"/>
<path d="M38.6362 71.858L84.2869 45.5334C84.9476 45.0543 85.4527 44.3914 85.7394 43.6273C86.0262 42.8631 86.0818 42.0316 85.8995 41.2361L77.99 5.2847C77.6352 3.67217 76.321 2.86591 75.0632 3.61573L29.4125 29.9322C28.7511 30.4107 28.2453 31.0735 27.9585 31.8379C27.6717 32.6022 27.6166 33.4341 27.8 34.2296L35.7095 70.2455C36.0642 71.858 37.3784 72.5998 38.6362 71.858Z" fill="#173D7A"/>
<path d="M38.2411 71.7129L83.8918 45.3722C84.5525 44.8931 85.0576 44.2301 85.3444 43.466C85.6311 42.7019 85.6867 41.8703 85.5044 41.0748L77.5949 5.12348C77.5361 4.76949 77.4029 4.43197 77.2042 4.13318C77.0055 3.83439 76.7457 3.5811 76.442 3.39001C76.8503 3.53126 77.2113 3.78325 77.4847 4.11784C77.758 4.45244 77.933 4.85645 77.99 5.28474L85.9075 41.22C86.0899 42.0155 86.0342 42.847 85.7475 43.6112C85.4608 44.3753 84.9556 45.0382 84.295 45.5174L38.6362 71.858C38.3709 72.0247 38.066 72.1177 37.7529 72.1276C37.4398 72.1376 37.1296 72.064 36.8543 71.9145C37.0873 71.9745 37.3299 71.9876 37.568 71.953C37.8061 71.9184 38.0349 71.8368 38.2411 71.7129Z" fill="#5793CE"/>
<path d="M36.9108 75.7765L43.5464 74.8976L86.3832 50.1695C87.2309 49.7852 88.157 49.6054 89.0869 49.6447C90.0168 49.6839 90.9245 49.941 91.7368 50.3952L122.085 67.9073L126.116 67.3832V69.6569C126.116 69.9548 126.029 70.2461 125.865 70.4953C125.702 70.7445 125.47 70.9407 125.197 71.0598L76.6597 99.0856C75.8112 99.4711 74.8841 99.6523 73.953 99.6145C73.0218 99.5767 72.1124 99.321 71.298 98.8679L38.2411 79.7917C37.8789 79.6381 37.5652 79.389 37.3337 79.0708C37.1022 78.7527 36.9616 78.3776 36.9269 77.9856L36.9108 75.7765Z" fill="#173D7A"/>
<path d="M69.0969 60.151L72.1446 58.3934H105.605L122.093 67.9073L126.124 67.3832V69.6569C126.124 69.9548 126.037 70.2461 125.874 70.4953C125.71 70.7445 125.478 70.9407 125.205 71.0598L76.6677 99.0856C75.8145 99.5192 74.8545 99.6983 73.9022 99.6016L69.0969 60.151Z" fill="#396CAA"/>
<path d="M124.318 67.6171L126.1 67.3833V69.6569C126.1 69.9548 126.013 70.2462 125.849 70.4953C125.686 70.7445 125.454 70.9407 125.181 71.0598L124.326 71.5597L124.318 67.6171Z" fill="#5793CE"/>
<path d="M76.176 99.3114C74.6798 99.8011 73.0529 99.7001 71.6287 99.0292V93.9578H76.176V99.3114Z" fill="#274F89"/>
<path d="M76.6354 96.8522L125.173 68.8264C126.551 68.0202 126.374 66.6495 124.794 65.7384L91.7368 46.6622C90.9245 46.208 90.0168 45.9509 89.0869 45.9116C88.157 45.8724 87.2309 46.0522 86.3832 46.4365L37.838 74.4622C36.4673 75.2685 36.6366 76.6391 38.225 77.5583L71.2818 96.6345C72.0952 97.0863 73.0031 97.3413 73.9328 97.3791C74.8625 97.4169 75.7881 97.2364 76.6354 96.8522Z" fill="#D4ECFF"/>
<path d="M38.225 76.6956L71.2819 95.7719C72.0969 96.2231 73.0061 96.4778 73.9369 96.5156C74.8678 96.5534 75.7946 96.3732 76.6435 95.9895L125.181 67.9638C125.571 67.7678 125.875 67.4348 126.035 67.0285C126.138 67.3764 126.107 67.75 125.949 68.0764C125.791 68.4028 125.517 68.6587 125.181 68.7942L76.6355 96.8522C75.787 97.2378 74.8599 97.419 73.9288 97.3811C72.9976 97.3433 72.0882 97.0876 71.2738 96.6345L38.2169 77.5583C37.1527 76.9375 36.7254 76.1151 36.9753 75.3975C37.2241 75.9651 37.6672 76.4254 38.225 76.6956Z" fill="white"/>
<path d="M104.532 59.5141L106.725 58.2402C106.903 58.1434 106.878 57.9661 106.677 57.8451L104.081 56.3455C103.973 56.2951 103.857 56.269 103.738 56.269C103.62 56.269 103.503 56.2951 103.395 56.3455L101.17 57.5871C100.993 57.6919 101.017 57.8693 101.218 57.9822L103.807 59.4818C103.917 59.5436 104.04 59.5787 104.166 59.5843C104.292 59.5899 104.417 59.5659 104.532 59.5141Z" fill="#5793CE"/>
<path d="M101.17 61.4733L103.363 60.1994C103.541 60.1027 103.524 59.9253 103.315 59.8044L100.727 58.3047C100.618 58.2531 100.5 58.2264 100.38 58.2264C100.26 58.2264 100.142 58.2531 100.033 58.3047L97.8402 59.5705C97.6629 59.6754 97.687 59.8527 97.8886 59.9656L100.485 61.4653C100.591 61.5169 100.708 61.5444 100.827 61.5457C100.945 61.5471 101.062 61.5224 101.17 61.4733Z" fill="#5793CE"/>
<path d="M97.7436 63.4245L99.9447 62.1828C100.122 62.078 100.098 61.9006 99.8964 61.7878L97.3002 60.2881C97.193 60.2378 97.076 60.2117 96.9575 60.2117C96.8391 60.2117 96.7221 60.2378 96.6149 60.2881L94.4138 61.5539C94.2445 61.6588 94.2606 61.8361 94.4621 61.949L97.0583 63.4487C97.1673 63.4953 97.2852 63.5172 97.4037 63.5131C97.5221 63.5089 97.6382 63.4786 97.7436 63.4245Z" fill="#5793CE"/>
<path d="M93.0591 61.812L95.2521 60.5703C95.4295 60.4655 95.4053 60.2881 95.2037 60.1672L93.0268 58.9094C92.9196 58.8591 92.8026 58.833 92.6842 58.833C92.5657 58.833 92.4487 58.8591 92.3415 58.9094L90.1404 60.1753C89.963 60.2801 89.9872 60.4575 90.1888 60.5703L92.3657 61.8281C92.4752 61.8772 92.5943 61.9012 92.7142 61.8984C92.8342 61.8956 92.952 61.8661 93.0591 61.812Z" fill="#5793CE"/>
<path d="M89.6648 63.7954L91.8578 62.5215C92.0352 62.4247 92.011 62.2474 91.8095 62.1264L89.6325 60.8686C89.5253 60.8183 89.4083 60.7922 89.2899 60.7922C89.1714 60.7922 89.0544 60.8183 88.9472 60.8686L86.7542 62.1345C86.5768 62.2393 86.5929 62.4167 86.8025 62.5296L88.9795 63.7873C89.0861 63.8389 89.2028 63.8664 89.3212 63.8678C89.4397 63.8692 89.557 63.8445 89.6648 63.7954Z" fill="#5793CE"/>
<path d="M86.2704 65.7304L88.4715 64.4565C88.6408 64.3598 88.6247 64.1824 88.415 64.0615L86.2462 62.8037C86.1379 62.7521 86.0195 62.7253 85.8995 62.7253C85.7795 62.7253 85.6611 62.7521 85.5528 62.8037L83.3598 64.0695C83.1824 64.1743 83.2066 64.3517 83.4081 64.4646L85.5851 65.7224C85.6917 65.774 85.8084 65.8015 85.9268 65.8028C86.0453 65.8042 86.1626 65.7795 86.2704 65.7304Z" fill="#5793CE"/>
<path d="M82.8841 67.6816L85.0448 66.4157C85.2222 66.319 85.198 66.1335 84.9965 66.0207L82.8196 64.7629C82.7137 64.7078 82.5962 64.679 82.4769 64.679C82.3576 64.679 82.24 64.7078 82.1342 64.7629L79.9331 66.0287C79.7558 66.1255 79.7799 66.3029 79.9815 66.4238L82.1584 67.6816C82.271 67.7383 82.3952 67.7678 82.5212 67.7678C82.6473 67.7678 82.7715 67.7383 82.8841 67.6816Z" fill="#5793CE"/>
<path d="M79.4897 69.6408L81.6828 68.375C81.8602 68.2702 81.836 68.0928 81.6344 67.9799L79.4575 66.7221C79.3503 66.6718 79.2333 66.6457 79.1148 66.6457C78.9964 66.6457 78.8794 66.6718 78.7722 66.7221L76.5791 67.996C76.4017 68.0928 76.4179 68.2702 76.6275 68.3911L78.8044 69.6489C78.9122 69.698 79.0295 69.7227 79.148 69.7213C79.2664 69.7199 79.3831 69.6924 79.4897 69.6408Z" fill="#5793CE"/>
<path d="M76.0953 71.6L78.2964 70.3342C78.4657 70.2294 78.4496 70.052 78.248 69.9391L76.0711 68.6813C75.9628 68.6298 75.8444 68.603 75.7244 68.603C75.6045 68.603 75.486 68.6298 75.3777 68.6813L73.1847 69.9552C73.0073 70.052 73.0315 70.2294 73.2331 70.3503L75.41 71.6081C75.5178 71.6572 75.6351 71.6819 75.7535 71.6805C75.872 71.6791 75.9887 71.6516 76.0953 71.6Z" fill="#5793CE"/>
<path d="M72.709 73.5592L74.902 72.2934C75.0794 72.1886 75.0552 72.0112 74.8536 71.8983L72.6767 70.6405C72.5709 70.5854 72.4534 70.5566 72.3341 70.5566C72.2148 70.5566 72.0972 70.5854 71.9914 70.6405L69.7903 71.9064C69.6129 72.0112 69.6371 72.1886 69.8387 72.3095L72.0156 73.5592C72.1228 73.6144 72.2417 73.6432 72.3623 73.6432C72.4829 73.6432 72.6017 73.6144 72.709 73.5592Z" fill="#5793CE"/>
<path d="M69.3147 75.5185L71.5077 74.2768C71.6851 74.172 71.6609 73.9946 71.4594 73.8737L69.2824 72.624C69.1766 72.5688 69.0591 72.5401 68.9398 72.5401C68.8205 72.5401 68.7029 72.5688 68.5971 72.624L66.4041 73.8898C66.2267 73.9946 66.2428 74.172 66.4525 74.2929L68.6294 75.5426C68.7371 75.5941 68.8557 75.6187 68.975 75.6145C69.0943 75.6103 69.2108 75.5773 69.3147 75.5185Z" fill="#5793CE"/>
<path d="M65.9202 77.5018L68.1132 76.2038C68.2906 76.107 68.2664 75.9296 68.0648 75.8087L65.8879 74.5509C65.7796 74.4993 65.6612 74.4726 65.5412 74.4726C65.4213 74.4726 65.3028 74.4993 65.1945 74.5509L63.0015 75.8167C62.8241 75.9216 62.8483 76.0989 63.0499 76.2118L65.2268 77.4696C65.3327 77.5263 65.4499 77.5586 65.5698 77.5642C65.6898 77.5697 65.8095 77.5484 65.9202 77.5018Z" fill="#5793CE"/>
<path d="M62.5339 79.4369L64.727 78.163C64.9044 78.0662 64.8802 77.8889 64.6786 77.7679L62.5017 76.5102C62.3945 76.4598 62.2775 76.4337 62.159 76.4337C62.0406 76.4337 61.9236 76.4598 61.8164 76.5102L59.6153 77.776C59.4379 77.8808 59.4621 78.0582 59.6636 78.1711L61.8405 79.4288C61.9482 79.4817 62.0664 79.5098 62.1863 79.5112C62.3063 79.5126 62.425 79.4872 62.5339 79.4369Z" fill="#5793CE"/>
<path d="M88.0603 60.8847L90.2533 59.6189C90.4307 59.5141 90.4065 59.3367 90.205 59.2158L88.028 57.958C87.9208 57.9076 87.8038 57.8815 87.6854 57.8815C87.5669 57.8815 87.4499 57.9076 87.3427 57.958L85.1416 59.2238C84.9723 59.3286 84.9884 59.506 85.19 59.6189L87.3669 60.8767C87.4746 60.9295 87.5927 60.9577 87.7127 60.959C87.8326 60.9604 87.9514 60.9351 88.0603 60.8847Z" fill="#5793CE"/>
<path d="M91.4949 58.8933L93.6879 57.6275C93.8653 57.5226 93.8411 57.3453 93.6395 57.2324L91.4949 55.9746C91.3877 55.9243 91.2707 55.8982 91.1522 55.8982C91.0338 55.8982 90.9168 55.9243 90.8095 55.9746L88.6084 57.2485C88.4311 57.3453 88.4552 57.5226 88.6568 57.6436L90.8337 58.9014C90.9382 58.9468 91.0512 58.9696 91.1652 58.9682C91.2791 58.9668 91.3915 58.9413 91.4949 58.8933Z" fill="#5793CE"/>
<path d="M94.9459 56.9018L99.6786 54.1766C99.856 54.0718 99.8318 53.8944 99.6303 53.7735L97.4533 52.5238C97.3475 52.4687 97.23 52.4399 97.1107 52.4399C96.9914 52.4399 96.8738 52.4687 96.768 52.5238L92.0352 55.257C91.8579 55.3538 91.8821 55.5312 92.0836 55.6521L94.2605 56.9099C94.3683 56.959 94.4856 56.9837 94.6041 56.9823C94.7225 56.9809 94.8392 56.9534 94.9459 56.9018Z" fill="#5793CE"/>
<path d="M92.5351 54.483L96.3326 52.2658C96.51 52.169 96.4939 51.9916 96.2843 51.8707L94.1074 50.6129C94.0001 50.5626 93.8831 50.5365 93.7647 50.5365C93.6462 50.5365 93.5292 50.5626 93.422 50.6129L89.5842 52.8302C89.4068 52.9269 89.431 53.1043 89.6326 53.2252L91.8095 54.483C91.922 54.5397 92.0463 54.5692 92.1723 54.5692C92.2983 54.5692 92.4226 54.5397 92.5351 54.483Z" fill="#5793CE"/>
<path d="M84.666 62.844L86.859 61.5701C87.0364 61.4733 87.0203 61.296 86.8106 61.175L84.6337 59.9173C84.5265 59.8669 84.4095 59.8408 84.2911 59.8408C84.1726 59.8408 84.0556 59.8669 83.9484 59.9173L81.7554 61.1831C81.578 61.2879 81.6022 61.4653 81.8037 61.5782L83.9806 62.8359C84.0873 62.8875 84.204 62.915 84.3224 62.9164C84.4409 62.9178 84.5582 62.8931 84.666 62.844Z" fill="#5793CE"/>
<path d="M81.2715 64.8032L83.4323 63.5293C83.6097 63.4325 83.5855 63.2552 83.3839 63.1342L81.207 61.8765C81.0987 61.8249 80.9803 61.7981 80.8603 61.7981C80.7404 61.7981 80.6219 61.8249 80.5136 61.8765L78.3206 63.1423C78.1432 63.2471 78.1674 63.4245 78.369 63.5374L80.5459 64.7951C80.6578 64.8531 80.7817 64.884 80.9077 64.8854C81.0337 64.8868 81.1583 64.8587 81.2715 64.8032Z" fill="#5793CE"/>
<path d="M77.8853 66.7543L80.0783 65.4885C80.2557 65.3917 80.2315 65.2063 80.0299 65.0934L77.853 63.8357C77.7472 63.7805 77.6296 63.7518 77.5103 63.7518C77.391 63.7518 77.2735 63.7805 77.1677 63.8357L74.9666 65.1015C74.7973 65.1982 74.8134 65.3756 75.023 65.4966L77.1919 66.7543C77.3002 66.8059 77.4186 66.8327 77.5386 66.8327C77.6585 66.8327 77.777 66.8059 77.8853 66.7543Z" fill="#5793CE"/>
<path d="M74.4909 68.7136L76.684 67.4477C76.8613 67.3429 76.8452 67.1656 76.6356 67.0527L74.4587 65.7949C74.3514 65.7446 74.2345 65.7185 74.116 65.7185C73.9976 65.7185 73.8806 65.7446 73.7733 65.7949L71.5803 67.0204C71.4029 67.1172 71.4271 67.2946 71.6287 67.4155L73.8056 68.6733C73.9098 68.73 74.0253 68.763 74.1438 68.77C74.2622 68.777 74.3808 68.7577 74.4909 68.7136Z" fill="#5793CE"/>
<path d="M71.0964 70.6728L73.2975 69.4392C73.4749 69.3344 73.4507 69.157 73.2492 69.0442L71.0722 67.7864C70.9639 67.7348 70.8455 67.708 70.7256 67.708C70.6056 67.708 70.4872 67.7348 70.3789 67.7864L68.1858 69.0603C68.0084 69.157 68.0326 69.3344 68.2342 69.4554L70.4111 70.7131C70.5213 70.7573 70.6398 70.7765 70.7583 70.7696C70.8767 70.7626 70.9922 70.7296 71.0964 70.6728Z" fill="#5793CE"/>
<path d="M67.7102 72.6643L69.9032 71.3985C70.0806 71.2936 70.0564 71.1163 69.8549 71.0034L67.678 69.7456C67.5707 69.6953 67.4537 69.6692 67.3353 69.6692C67.2168 69.6692 67.0998 69.6953 66.9926 69.7456L64.7915 71.0115C64.6222 71.1163 64.6383 71.2936 64.848 71.4146L67.0168 72.6724C67.1257 72.7227 67.2445 72.7481 67.3644 72.7467C67.4844 72.7453 67.6025 72.7171 67.7102 72.6643Z" fill="#5793CE"/>
<path d="M64.3159 74.5913L66.5009 73.3254C66.6782 73.2206 66.6621 73.0432 66.4525 72.9223L64.2756 71.6726C64.1698 71.6175 64.0522 71.5887 63.9329 71.5887C63.8136 71.5887 63.696 71.6175 63.5902 71.6726L61.3972 72.9384C61.2198 73.0432 61.244 73.2206 61.4456 73.3416L63.6225 74.5913C63.7293 74.6477 63.8483 74.6773 63.9692 74.6773C64.09 74.6773 64.209 74.6477 64.3159 74.5913Z" fill="#5793CE"/>
<path d="M60.9214 76.5505L63.1225 75.2847C63.2999 75.1798 63.2757 75.0025 63.0741 74.8815L60.8972 73.6238C60.7889 73.5722 60.6704 73.5454 60.5505 73.5454C60.4305 73.5454 60.3121 73.5722 60.2038 73.6238L58.0108 74.8896C57.8334 74.9944 57.8576 75.1718 58.0591 75.2847L60.2361 76.5424C60.3427 76.594 60.4594 76.6215 60.5778 76.6229C60.6963 76.6243 60.8136 76.5996 60.9214 76.5505Z" fill="#5793CE"/>
<path d="M57.5352 78.5097L59.7282 77.2358C59.9056 77.1391 59.8814 76.9617 59.6798 76.8407L57.5029 75.583C57.3957 75.5326 57.2787 75.5065 57.1602 75.5065C57.0418 75.5065 56.9248 75.5326 56.8176 75.583L54.6165 76.8488C54.4472 76.9536 54.4633 77.131 54.6729 77.2439L56.8256 78.4775C56.9336 78.5367 57.0537 78.5703 57.1767 78.5759C57.2996 78.5815 57.4223 78.5589 57.5352 78.5097Z" fill="#5793CE"/>
<path d="M51.5042 81.9847L56.2934 79.2192C56.4708 79.1224 56.4466 78.9451 56.245 78.8241L54.0681 77.5664C53.9609 77.516 53.8439 77.4899 53.7254 77.4899C53.607 77.4899 53.49 77.516 53.3828 77.5664L48.5935 80.3318C48.4162 80.4286 48.4323 80.606 48.6419 80.7269L50.8188 81.9847C50.9261 82.035 51.0431 82.0611 51.1615 82.0611C51.28 82.0611 51.3969 82.035 51.5042 81.9847Z" fill="#5793CE"/>
<path d="M44.9009 78.1792L48.9322 75.841C49.1015 75.7362 49.0854 75.5588 48.8757 75.4459L46.7069 74.1881C46.5986 74.1366 46.4801 74.1098 46.3602 74.1098C46.2402 74.1098 46.1218 74.1366 46.0135 74.1881L41.9822 76.5263C41.8048 76.6311 41.8209 76.8085 42.0305 76.9214L44.2075 78.1792C44.3158 78.2307 44.4342 78.2575 44.5542 78.2575C44.6741 78.2575 44.7926 78.2307 44.9009 78.1792Z" fill="#5793CE"/>
<path d="M78.7236 62.4569L80.9247 61.1911C81.1021 61.0863 81.0779 60.9089 80.8764 60.796L78.6994 59.5383C78.5911 59.4867 78.4727 59.4599 78.3527 59.4599C78.2328 59.4599 78.1144 59.4867 78.0061 59.5383L75.813 60.8122C75.6356 60.9089 75.6598 61.0863 75.8614 61.2072L78.0383 62.465C78.1461 62.5141 78.2634 62.5388 78.3819 62.5374C78.5003 62.536 78.617 62.5086 78.7236 62.4569Z" fill="#5793CE"/>
<path d="M82.2068 60.4494L84.3998 59.1835C84.5772 59.0787 84.553 58.9013 84.3515 58.7885L82.1745 57.5307C82.0673 57.4804 81.9503 57.4543 81.8319 57.4543C81.7134 57.4543 81.5964 57.4804 81.4892 57.5307L79.2881 58.8046C79.1107 58.9013 79.1349 59.0787 79.3365 59.1997L81.5134 60.4574C81.6223 60.5078 81.7411 60.5332 81.861 60.5318C81.981 60.5304 82.0991 60.5022 82.2068 60.4494Z" fill="#5793CE"/>
<path d="M85.6819 58.4418L87.8749 57.1759C88.0523 57.0711 88.0281 56.8938 87.8265 56.7809L85.6496 55.5231C85.5424 55.4728 85.4254 55.4467 85.307 55.4467C85.1885 55.4467 85.0715 55.4728 84.9643 55.5231L82.7632 56.797C82.5858 56.8938 82.61 57.0711 82.8116 57.1921L84.9885 58.4498C85.0974 58.5002 85.2161 58.5256 85.3361 58.5242C85.4561 58.5228 85.5742 58.4946 85.6819 58.4418Z" fill="#5793CE"/>
<path d="M89.1567 56.4342L91.3498 55.1683C91.5272 55.0716 91.503 54.8861 91.3014 54.7733L89.1245 53.5155C89.0187 53.4604 88.9011 53.4316 88.7818 53.4316C88.6625 53.4316 88.545 53.4604 88.4392 53.5155L86.2381 54.7813C86.0687 54.8781 86.0849 55.0554 86.2945 55.1764L88.4634 56.4342C88.5716 56.4857 88.6901 56.5125 88.81 56.5125C88.93 56.5125 89.0484 56.4857 89.1567 56.4342Z" fill="#5793CE"/>
<path d="M75.3696 64.4162L77.5627 63.1503C77.74 63.0455 77.7159 62.8682 77.5143 62.7553L75.3374 61.4975C75.2302 61.4472 75.1132 61.4211 74.9947 61.4211C74.8763 61.4211 74.7593 61.4472 74.6521 61.4975L72.451 62.7633C72.2816 62.8682 72.2978 63.0455 72.4993 63.1665L74.6762 64.4242C74.7851 64.4746 74.9039 64.5 75.0238 64.4986C75.1438 64.4972 75.2619 64.469 75.3696 64.4162Z" fill="#5793CE"/>
<path d="M71.9431 66.3754L74.1361 65.1096C74.3135 65.0048 74.2974 64.8274 74.0877 64.7064L71.9108 63.4567C71.805 63.4016 71.6875 63.3728 71.5682 63.3728C71.4489 63.3728 71.3313 63.4016 71.2255 63.4567L69.0324 64.7226C68.8551 64.8274 68.8793 65.0048 69.0808 65.1257L71.2577 66.3754C71.3635 66.4305 71.4811 66.4593 71.6004 66.4593C71.7197 66.4593 71.8373 66.4305 71.9431 66.3754Z" fill="#5793CE"/>
<path d="M68.5486 68.3346L70.7497 67.0688C70.9271 66.964 70.9029 66.7866 70.7013 66.6657L68.5244 65.4079C68.4161 65.3563 68.2976 65.3296 68.1777 65.3296C68.0577 65.3296 67.9393 65.3563 67.831 65.4079L65.638 66.6737C65.4606 66.7786 65.4848 66.9559 65.6863 67.0688L67.8632 68.3266C67.9699 68.3782 68.0866 68.4057 68.205 68.4071C68.3235 68.4084 68.4408 68.3837 68.5486 68.3346Z" fill="#5793CE"/>
<path d="M65.1624 70.2939L67.3554 69.02C67.5328 68.9232 67.5086 68.7458 67.307 68.6249L65.1301 67.3671C65.0229 67.3168 64.9059 67.2907 64.7874 67.2907C64.669 67.2907 64.552 67.3168 64.4448 67.3671L62.2437 68.633C62.0744 68.7378 62.0905 68.9152 62.3001 69.028L64.469 70.2455C64.5736 70.3048 64.6902 70.3399 64.8102 70.3482C64.9302 70.3566 65.0505 70.338 65.1624 70.2939Z" fill="#5793CE"/>
<path d="M61.768 72.2531L63.9611 70.9792C64.1384 70.8824 64.1223 70.7051 63.9127 70.5841L61.7358 69.3264C61.6285 69.276 61.5115 69.2499 61.3931 69.2499C61.2747 69.2499 61.1577 69.276 61.0504 69.3264L58.8574 70.5922C58.68 70.697 58.7042 70.8744 58.9058 70.9873L61.0827 72.245C61.1893 72.2966 61.306 72.3241 61.4245 72.3255C61.5429 72.3269 61.6602 72.3022 61.768 72.2531Z" fill="#5793CE"/>
<path d="M58.3735 74.2043L60.5746 72.9384C60.752 72.8417 60.7278 72.6562 60.5263 72.5434L58.3493 71.2856C58.2421 71.2304 58.1233 71.2017 58.0027 71.2017C57.8821 71.2017 57.7632 71.2304 57.656 71.2856L55.4629 72.5514C55.2855 72.6482 55.3097 72.8256 55.5113 72.9465L57.6882 74.2043C57.7954 74.2546 57.9124 74.2807 58.0309 74.2807C58.1493 74.2807 58.2663 74.2546 58.3735 74.2043Z" fill="#5793CE"/>
<path d="M54.9873 76.1635L57.1803 74.8976C57.3577 74.7928 57.3335 74.6154 57.132 74.5026L54.955 73.2448C54.8478 73.1945 54.7308 73.1684 54.6124 73.1684C54.4939 73.1684 54.3769 73.1945 54.2697 73.2448L52.0686 74.5187C51.8993 74.6154 51.9154 74.7928 52.1251 74.9138L54.2939 76.1715C54.4028 76.2219 54.5216 76.2472 54.6415 76.2459C54.7615 76.2445 54.8796 76.2163 54.9873 76.1635Z" fill="#5793CE"/>
<path d="M51.593 78.1227L53.786 76.8568C53.9634 76.752 53.9473 76.5747 53.7376 76.4618L51.5607 75.204C51.4535 75.1537 51.3365 75.1276 51.2181 75.1276C51.0996 75.1276 50.9826 75.1537 50.8754 75.204L48.6824 76.4779C48.505 76.5747 48.5292 76.752 48.7307 76.873L50.9077 78.1307C51.0155 78.1798 51.1328 78.2046 51.2512 78.2032C51.3697 78.2018 51.4863 78.1743 51.593 78.1227Z" fill="#5793CE"/>
<path d="M48.1985 80.0819L50.3754 78.8161C50.5528 78.7113 50.5286 78.5339 50.327 78.413L48.1501 77.1633C48.0429 77.1081 47.924 77.0793 47.8034 77.0793C47.6828 77.0793 47.564 77.1081 47.4567 77.1633L45.2637 78.4291C45.0863 78.5339 45.1105 78.7113 45.3121 78.8322L47.489 80.0819C47.5978 80.1412 47.7198 80.1723 47.8437 80.1723C47.9677 80.1723 48.0897 80.1412 48.1985 80.0819Z" fill="#5793CE"/>
<path d="M80.5137 57.6113L82.7067 56.3455C82.8841 56.2487 82.8599 56.0633 82.6583 55.9504L80.4814 54.6926C80.3742 54.6423 80.2572 54.6162 80.1388 54.6162C80.0203 54.6162 79.9033 54.6423 79.7961 54.6926L77.6031 55.9585C77.4257 56.0552 77.4418 56.2326 77.6514 56.3535L79.8283 57.6113C79.9356 57.6616 80.0526 57.6877 80.171 57.6877C80.2895 57.6877 80.4065 57.6616 80.5137 57.6113Z" fill="#5793CE"/>
<path d="M83.8838 55.6682L86.0849 54.4024C86.2623 54.2976 86.2381 54.1202 86.0365 53.9993L83.8596 52.7415C83.7524 52.6911 83.6354 52.665 83.5169 52.665C83.3985 52.665 83.2815 52.6911 83.1743 52.7415L80.9732 54.0073C80.7958 54.1121 80.82 54.2895 81.0215 54.4024L83.1985 55.6602C83.3051 55.7118 83.4218 55.7392 83.5402 55.7406C83.6587 55.742 83.776 55.7173 83.8838 55.6682Z" fill="#5793CE"/>
<path d="M87.2622 53.7171L89.4552 52.4512C89.6326 52.3464 89.6165 52.1691 89.4068 52.0562L87.2299 50.7984C87.1227 50.7481 87.0057 50.722 86.8872 50.722C86.7688 50.722 86.6518 50.7481 86.5446 50.7984L84.3515 52.0642C84.1742 52.169 84.1983 52.3464 84.3999 52.4674L86.5768 53.7251C86.6846 53.7742 86.8019 53.799 86.9204 53.7976C87.0388 53.7962 87.1555 53.7687 87.2622 53.7171Z" fill="#5793CE"/>
<path d="M90.6404 51.7659L92.8334 50.5C93.0108 50.4033 92.9866 50.2259 92.785 50.105L90.6081 48.8472C90.5009 48.7969 90.3839 48.7708 90.2655 48.7708C90.147 48.7708 90.03 48.7969 89.9228 48.8472L87.7217 50.0889C87.5443 50.1856 87.5685 50.371 87.7701 50.4839L89.947 51.7417C90.0523 51.8006 90.1701 51.8336 90.2907 51.8378C90.4114 51.842 90.5312 51.8173 90.6404 51.7659Z" fill="#5793CE"/>
<path d="M87.1654 49.7664L89.3665 48.4763C89.5358 48.3715 89.5197 48.1942 89.3101 48.0732L88.5925 47.662C88.4853 47.6117 88.3683 47.5856 88.2498 47.5856C88.1314 47.5856 88.0144 47.6117 87.9072 47.662L85.7141 48.9359C85.5367 49.0327 85.5529 49.21 85.7625 49.331L86.4801 49.7422C86.5839 49.8011 86.7005 49.834 86.8198 49.8382C86.9391 49.8424 87.0577 49.8178 87.1654 49.7664Z" fill="#5793CE"/>
<path d="M82.7632 52.3061L84.9562 51.0403C85.1336 50.9354 85.1094 50.7581 84.9078 50.6452L84.1903 50.2259C84.0831 50.1756 83.9661 50.1495 83.8476 50.1495C83.7292 50.1495 83.6122 50.1756 83.5049 50.2259L81.3038 51.4918C81.1265 51.5966 81.1507 51.774 81.3522 51.8868L82.0779 52.3061C82.1851 52.3564 82.3021 52.3825 82.4205 52.3825C82.539 52.3825 82.656 52.3564 82.7632 52.3061Z" fill="#5793CE"/>
<path d="M79.401 54.2492L81.6021 52.9833C81.7714 52.8785 81.7553 52.7011 81.5457 52.5802L80.8281 52.169C80.7209 52.1187 80.6039 52.0926 80.4854 52.0926C80.367 52.0926 80.25 52.1187 80.1428 52.169L77.9417 53.4429C77.7723 53.5397 77.7885 53.717 77.9981 53.838L78.7157 54.2492C78.8215 54.3043 78.939 54.3331 79.0583 54.3331C79.1776 54.3331 79.2952 54.3043 79.401 54.2492Z" fill="#5793CE"/>
<path d="M76.0388 56.1923L78.2399 54.9264C78.4173 54.8297 78.3931 54.6523 78.1915 54.5314L77.4659 54.1202C77.3601 54.0651 77.2425 54.0363 77.1232 54.0363C77.0039 54.0363 76.8864 54.0651 76.7806 54.1202L74.5633 55.3457C74.386 55.4505 74.4021 55.6279 74.6117 55.7488L75.3293 56.16C75.4372 56.2192 75.5573 56.2529 75.6803 56.2585C75.8033 56.2641 75.9259 56.2414 76.0388 56.1923Z" fill="#5793CE"/>
<path d="M72.6768 58.1515L74.8779 56.8857C75.0552 56.7809 75.031 56.6035 74.8295 56.4906L74.1119 56.0713C74.0036 56.0198 73.8852 55.993 73.7652 55.993C73.6452 55.993 73.5268 56.0198 73.4185 56.0713L71.2255 57.3372C71.0481 57.442 71.0723 57.6194 71.2738 57.7322L71.9914 58.1515C72.0986 58.2018 72.2156 58.2279 72.3341 58.2279C72.4525 58.2279 72.5695 58.2018 72.6768 58.1515Z" fill="#5793CE"/>
<path d="M53.915 68.9635L56.1161 67.6977C56.2935 67.5929 56.2693 67.4155 56.0678 67.2945L55.3421 66.8834C55.2349 66.833 55.1179 66.8069 54.9995 66.8069C54.881 66.8069 54.764 66.833 54.6568 66.8834L52.4638 68.1573C52.2864 68.254 52.3106 68.4314 52.5121 68.5523L53.2297 68.9635C53.3369 69.0139 53.4539 69.04 53.5724 69.04C53.6908 69.04 53.8078 69.0139 53.915 68.9635Z" fill="#5793CE"/>
<path d="M50.5608 70.8986L52.7538 69.6327C52.9312 69.536 52.907 69.3586 52.7055 69.2376L51.9879 68.8184C51.8796 68.7668 51.7611 68.74 51.6412 68.74C51.5212 68.74 51.4028 68.7668 51.2945 68.8184L49.1015 70.0842C48.9241 70.189 48.9483 70.3664 49.1498 70.4793L49.8674 70.8986C49.9746 70.9537 50.0935 70.9825 50.2141 70.9825C50.3347 70.9825 50.4535 70.9537 50.5608 70.8986Z" fill="#5793CE"/>
<path d="M47.1987 72.8417L49.3918 71.5758C49.5691 71.471 49.545 71.2936 49.3434 71.1808L48.6258 70.7615C48.5175 70.7099 48.3991 70.6832 48.2791 70.6832C48.1592 70.6832 48.0407 70.7099 47.9324 70.7615L45.7394 72.0273C45.562 72.1241 45.5862 72.3095 45.7878 72.4224L46.5053 72.8417C46.6136 72.8933 46.7321 72.92 46.852 72.92C46.972 72.92 47.0904 72.8933 47.1987 72.8417Z" fill="#5793CE"/>
<path d="M43.8367 74.7848L46.0297 73.5189C46.2071 73.4141 46.1829 73.2367 45.9813 73.1158L45.2638 72.7046C45.1565 72.6543 45.0395 72.6282 44.9211 72.6282C44.8026 72.6282 44.6856 72.6543 44.5784 72.7046L42.3773 73.9705C42.2 74.0753 42.2241 74.2526 42.4257 74.3736L43.1513 74.7848C43.2586 74.8351 43.3756 74.8612 43.494 74.8612C43.6125 74.8612 43.7294 74.8351 43.8367 74.7848Z" fill="#5793CE"/>
<path d="M77.1194 59.5706L79.3205 58.3047C79.4979 58.1999 79.4737 58.0225 79.2721 57.9096L77.0952 56.6519C76.9869 56.6003 76.8685 56.5735 76.7485 56.5735C76.6286 56.5735 76.5101 56.6003 76.4018 56.6519L74.2088 57.9258C74.0314 58.0225 74.0556 58.1999 74.2571 58.3208L76.4341 59.5786C76.5419 59.6277 76.6592 59.6524 76.7776 59.651C76.8961 59.6496 77.0128 59.6222 77.1194 59.5706Z" fill="#5793CE"/>
<path d="M73.7571 61.5298L75.9501 60.2639C76.1275 60.1591 76.1033 59.9818 75.9017 59.8689L73.7248 58.6111C73.6176 58.5608 73.5006 58.5347 73.3822 58.5347C73.2637 58.5347 73.1467 58.5608 73.0395 58.6111L70.8384 59.885C70.661 59.9818 70.6852 60.1591 70.8868 60.2801L73.0637 61.5378C73.1726 61.5882 73.2913 61.6136 73.4113 61.6122C73.5313 61.6108 73.6494 61.5826 73.7571 61.5298Z" fill="#5793CE"/>
<path d="M70.3386 63.489L72.5317 62.2232C72.709 62.1184 72.6849 61.941 72.4833 61.8281L70.3064 60.5703C70.1992 60.52 70.0822 60.4939 69.9637 60.4939C69.8453 60.4939 69.7283 60.52 69.621 60.5703L67.428 61.8362C67.2506 61.941 67.2668 62.1184 67.4764 62.2393L69.6533 63.4971C69.7611 63.5461 69.8784 63.5709 69.9969 63.5695C70.1153 63.5681 70.232 63.5406 70.3386 63.489Z" fill="#5793CE"/>
<path d="M66.9443 65.4482L69.1454 64.1824C69.3228 64.0776 69.2986 63.9002 69.0971 63.7792L66.9201 62.5295C66.8129 62.4744 66.694 62.4456 66.5734 62.4456C66.4528 62.4456 66.334 62.4744 66.2268 62.5295L64.0337 63.7954C63.8563 63.9002 63.8805 64.0776 64.0821 64.1985L66.259 65.4079C66.3615 65.4693 66.4774 65.5051 66.5967 65.5121C66.716 65.5191 66.8353 65.4972 66.9443 65.4482Z" fill="#5793CE"/>
<path d="M63.5579 67.4074L65.7509 66.1416C65.9283 66.0368 65.9041 65.8594 65.7025 65.7385L63.5256 64.4807C63.4184 64.4303 63.3014 64.4043 63.1829 64.4043C63.0645 64.4043 62.9475 64.4303 62.8403 64.4807L60.6392 65.7465C60.4618 65.8513 60.486 66.0287 60.6876 66.1416L62.8645 67.3994C62.9722 67.4522 63.0903 67.4804 63.2103 67.4818C63.3302 67.4831 63.449 67.4578 63.5579 67.4074Z" fill="#5793CE"/>
<path d="M60.1636 69.3667L62.3566 68.0928C62.534 67.996 62.5098 67.8186 62.3082 67.6977L60.1313 66.4399C60.0241 66.3896 59.9071 66.3635 59.7887 66.3635C59.6702 66.3635 59.5532 66.3896 59.446 66.4399L57.253 67.7057C57.0756 67.8106 57.0917 67.9879 57.3013 68.1008L59.4782 69.3586C59.5849 69.4102 59.7016 69.4377 59.82 69.4391C59.9385 69.4405 60.0558 69.4157 60.1636 69.3667Z" fill="#5793CE"/>
<path d="M56.769 71.3259L58.9701 70.052C59.1475 69.9553 59.1233 69.7779 58.9218 69.6569L56.7448 68.3992C56.6365 68.3476 56.5181 68.3208 56.3982 68.3208C56.2782 68.3208 56.1597 68.3476 56.0515 68.3992L53.8584 69.665C53.681 69.7698 53.7052 69.9472 53.9068 70.0601L56.0837 71.3178C56.1903 71.3694 56.307 71.3969 56.4255 71.3983C56.5439 71.3997 56.6612 71.375 56.769 71.3259Z" fill="#5793CE"/>
<path d="M53.3828 73.277L55.5759 72.0112C55.7532 71.9145 55.729 71.729 55.5275 71.6161L53.3506 70.3584C53.2448 70.3033 53.1272 70.2745 53.0079 70.2745C52.8886 70.2745 52.771 70.3033 52.6652 70.3584L50.4641 71.6242C50.2868 71.721 50.3109 71.8983 50.5125 72.0193L52.6894 73.277C52.7977 73.3286 52.9162 73.3554 53.0361 73.3554C53.1561 73.3554 53.2745 73.3286 53.3828 73.277Z" fill="#5793CE"/>
<path d="M49.9885 75.2363L52.1816 73.9705C52.3589 73.8656 52.3347 73.6883 52.1332 73.5754L49.9563 72.3176C49.8491 72.2673 49.7321 72.2412 49.6136 72.2412C49.4952 72.2412 49.3782 72.2673 49.271 72.3176L47.0779 73.5915C46.9005 73.6883 46.9167 73.8656 47.1263 73.9866L49.3032 75.2444C49.411 75.2934 49.5283 75.3182 49.6468 75.3168C49.7652 75.3154 49.8819 75.2879 49.9885 75.2363Z" fill="#5793CE"/>
<path d="M96.51 59.8124L102.96 56.0794C103.137 55.9746 103.121 55.7972 102.912 55.6844L100.735 54.4266C100.628 54.3762 100.511 54.3502 100.392 54.3502C100.274 54.3502 100.157 54.3762 100.049 54.4266L93.5993 58.1677C93.422 58.2644 93.4462 58.4418 93.6477 58.5627L95.8246 59.7641C95.9283 59.8221 96.0434 59.8565 96.1619 59.8649C96.2804 59.8733 96.3992 59.8553 96.51 59.8124Z" fill="#5793CE"/>
<path d="M54.8422 83.8714L61.2923 80.1384C61.4616 80.0335 61.4455 79.8562 61.2358 79.7433L59.0589 78.4855C58.9517 78.4352 58.8347 78.4091 58.7163 78.4091C58.5978 78.4091 58.4808 78.4352 58.3736 78.4855L51.9235 82.2185C51.7461 82.3233 51.7703 82.5007 51.9719 82.6217L54.1488 83.8714C54.2556 83.9278 54.3746 83.9574 54.4955 83.9574C54.6163 83.9574 54.7353 83.9278 54.8422 83.8714Z" fill="#5793CE"/>
<path d="M68.4116 80.3641L70.6047 79.1144C70.782 79.0096 70.7579 78.8322 70.5563 78.7193L67.9601 77.2197C67.8543 77.1646 67.7368 77.1358 67.6174 77.1358C67.4981 77.1358 67.3806 77.1646 67.2748 77.2197L65.0818 78.4855C64.9044 78.5823 64.9205 78.7597 65.1301 78.8806L67.7182 80.3803C67.8277 80.4293 67.9468 80.4534 68.0668 80.4506C68.1867 80.4478 68.3045 80.4182 68.4116 80.3641Z" fill="#5793CE"/>
<path d="M93.0349 66.1416L96.5502 64.1179C96.7276 64.013 96.7034 63.8357 96.5018 63.7228L93.9137 62.2231C93.8079 62.168 93.6904 62.1392 93.5711 62.1392C93.4518 62.1392 93.3342 62.168 93.2284 62.2231L89.7131 64.2469C89.5438 64.3517 89.5599 64.5291 89.7695 64.6419L92.3576 66.1416C92.4624 66.1953 92.5785 66.2234 92.6963 66.2234C92.814 66.2234 92.9301 66.1953 93.0349 66.1416Z" fill="#5793CE"/>
<path d="M71.6769 78.4775L75.1922 76.4537C75.3615 76.3489 75.3454 76.1715 75.1357 76.0506L72.5476 74.559C72.4404 74.5087 72.3234 74.4826 72.205 74.4826C72.0865 74.4826 71.9695 74.5087 71.8623 74.559L68.347 76.5908C68.1696 76.6876 68.1938 76.8649 68.3954 76.9859L70.9915 78.4855C71.0994 78.5346 71.2166 78.5593 71.3351 78.5579C71.4535 78.5565 71.5702 78.5291 71.6769 78.4775Z" fill="#5793CE"/>
<path d="M88.1489 68.9716L91.6562 66.9398C91.8336 66.843 91.8094 66.6657 91.6078 66.5447L89.0197 65.0451C88.9114 64.9935 88.7929 64.9667 88.673 64.9667C88.553 64.9667 88.4346 64.9935 88.3263 65.0451L84.819 67.0688C84.6417 67.1736 84.6578 67.351 84.8674 67.4719L87.4636 68.9393C87.5672 68.9982 87.6833 69.0318 87.8024 69.0375C87.9215 69.0431 88.0402 69.0205 88.1489 68.9716Z" fill="#5793CE"/>
<path d="M88.27 65.037L72.9993 73.8495C72.8139 73.9624 72.8139 74.1397 72.9993 74.2445L75.6439 75.7765C75.7511 75.8268 75.8681 75.8529 75.9865 75.8529C76.105 75.8529 76.222 75.8268 76.3292 75.7765L91.5999 66.9559L88.27 65.037Z" fill="#5793CE"/>
<path d="M58.9298 83.952L56.511 85.363C56.374 85.4436 56.3901 85.5887 56.5513 85.6855L57.6156 86.2982C57.7033 86.3416 57.7999 86.3641 57.8978 86.3641C57.9957 86.3641 58.0922 86.3416 58.18 86.2982L60.5988 84.8873C60.7439 84.7986 60.7278 84.6534 60.5988 84.5567L59.5426 83.9439C59.448 83.8936 59.3423 83.868 59.2352 83.8694C59.1281 83.8708 59.023 83.8992 58.9298 83.952Z" fill="#5793CE"/>
<path d="M62.3485 81.9444L59.9297 83.3553C59.7845 83.436 59.8006 83.5811 59.97 83.6778L61.0262 84.2906C61.1139 84.334 61.2105 84.3565 61.3084 84.3565C61.4062 84.3565 61.5028 84.334 61.5906 84.2906L64.0094 82.8796C64.1464 82.799 64.1303 82.6458 64.0094 82.5571L62.9451 81.9444C62.8539 81.8935 62.7512 81.8669 62.6468 81.8669C62.5423 81.8669 62.4397 81.8935 62.3485 81.9444Z" fill="#5793CE"/>
<path d="M65.7428 79.9852L63.3241 81.3962C63.1789 81.4768 63.2031 81.6219 63.3241 81.7187L64.3883 82.3314C64.4755 82.3767 64.5723 82.4003 64.6705 82.4003C64.7687 82.4003 64.8655 82.3767 64.9527 82.3314L67.3715 80.9205C67.5166 80.8398 67.5005 80.6947 67.3312 80.5979L66.275 79.9852C66.192 79.9452 66.101 79.9244 66.0089 79.9244C65.9168 79.9244 65.8258 79.9452 65.7428 79.9852Z" fill="#5793CE"/>
<path d="M60.478 80.864L58.0592 82.2749C57.914 82.3556 57.9382 82.5007 58.0592 82.5974L59.1234 83.2102C59.2112 83.2536 59.3077 83.2761 59.4056 83.2761C59.5035 83.2761 59.6001 83.2536 59.6878 83.2102L62.1066 81.7992C62.2517 81.7106 62.2356 81.5654 62.0663 81.4687L61.0101 80.8559C60.9261 80.8188 60.835 80.8003 60.7431 80.8017C60.6513 80.8031 60.5608 80.8243 60.478 80.864Z" fill="#5793CE"/>
<path d="M67.2908 21.7406L72.8057 18.5558L72.5719 17.3706L67.057 20.5554L67.2908 21.7406Z" fill="#D4ECFF"/>
<path d="M67.8956 24.498L73.4104 21.3133L73.1766 20.1281L67.6537 23.3128L67.8956 24.498Z" fill="white"/>
<path d="M40.8133 62.7875L46.3362 59.6028L46.1024 58.4176L40.5795 61.6023L40.8133 62.7875Z" fill="#D4ECFF"/>
<path d="M69.0889 30.0209L74.6038 26.8362L74.3699 25.651L68.8551 28.8357L69.0889 30.0209Z" fill="#D4ECFF"/>
<path d="M57.8818 35.8825L63.4451 32.6574C63.6988 32.4909 63.8967 32.252 64.0132 31.9717C64.1296 31.6913 64.1592 31.3825 64.0981 31.0852L62.8888 25.651C62.8773 25.5262 62.8337 25.4066 62.7623 25.3037C62.6909 25.2008 62.5941 25.1182 62.4812 25.0638C62.3684 25.0094 62.2434 24.9851 62.1184 24.9934C61.9935 25.0016 61.8728 25.0421 61.768 25.1108L56.2048 28.3358C55.951 28.5024 55.7531 28.7413 55.6367 29.0216C55.5203 29.3019 55.4907 29.6107 55.5517 29.9081L56.7611 35.3423C56.7726 35.467 56.8162 35.5866 56.8876 35.6895C56.959 35.7924 57.0558 35.8751 57.1686 35.9295C57.2815 35.9839 57.4065 36.0081 57.5314 35.9999C57.6564 35.9916 57.7771 35.9512 57.8818 35.8825Z" fill="#FF2C9C"/>
<path d="M48.1824 41.486L53.7456 38.261C54.0052 38.0901 54.2066 37.8444 54.3233 37.5564C54.4399 37.2684 54.4662 36.9517 54.3987 36.6484L53.1893 31.2223C53.1695 31.1024 53.1198 30.9894 53.045 30.8937C52.9702 30.798 52.8725 30.7227 52.761 30.6745C52.6494 30.6264 52.5276 30.607 52.4066 30.6182C52.2856 30.6293 52.1694 30.6707 52.0686 30.7385L46.5053 33.9636C46.2524 34.1309 46.0551 34.3699 45.9388 34.65C45.8224 34.93 45.7923 35.2385 45.8523 35.5358L47.0617 40.97C47.0768 41.0926 47.1231 41.2094 47.196 41.3091C47.2689 41.4089 47.3661 41.4884 47.4783 41.5401C47.5906 41.5918 47.7142 41.6139 47.8374 41.6044C47.9606 41.595 48.0793 41.5542 48.1824 41.486Z" fill="#B3E0FF"/>
<path d="M60.0505 45.5335L65.6138 42.3084C65.8733 42.1376 66.0748 41.8919 66.1914 41.6039C66.3081 41.3158 66.3344 40.9992 66.2669 40.6959L65.0575 35.2617C65.0445 35.1368 64.9998 35.0173 64.9274 34.9146C64.8551 34.812 64.7576 34.7296 64.6444 34.6754C64.5311 34.6212 64.4058 34.5969 64.2805 34.605C64.1552 34.6131 64.0341 34.6532 63.9287 34.7215L58.3655 37.9465C58.1059 38.1174 57.9044 38.3631 57.7878 38.6511C57.6712 38.9391 57.6449 39.2557 57.7124 39.5591L58.9218 44.9933C58.9347 45.1182 58.9795 45.2377 59.0518 45.3403C59.1241 45.443 59.2216 45.5253 59.3349 45.5795C59.4481 45.6337 59.5734 45.658 59.6987 45.6499C59.824 45.6418 59.9452 45.6018 60.0505 45.5335Z" fill="white"/>
<path d="M50.3352 51.137L55.8985 47.912C56.1498 47.7431 56.3459 47.5039 56.462 47.2243C56.5782 46.9447 56.6093 46.637 56.5515 46.3397L55.3421 40.9055C55.3305 40.7799 55.2866 40.6594 55.2148 40.5557C55.143 40.452 55.0456 40.3686 54.9321 40.3135C54.8187 40.2584 54.6929 40.2335 54.567 40.2411C54.4411 40.2488 54.3193 40.2888 54.2134 40.3573L48.6501 43.5823C48.3897 43.7523 48.1876 43.998 48.0709 44.2862C47.9541 44.5745 47.9284 44.8915 47.9971 45.1948L49.2065 50.621C49.223 50.7438 49.2704 50.8604 49.3442 50.96C49.418 51.0595 49.5158 51.1388 49.6285 51.1903C49.7413 51.2418 49.8652 51.264 49.9888 51.2546C50.1123 51.2453 50.2315 51.2049 50.3352 51.137Z" fill="#396CAA"/>
</svg>
