<svg width="55" height="55" viewBox="0 0 55 55" fill="none" xmlns="http://www.w3.org/2000/svg">
<g clip-path="url(#clip0)">
<path d="M54.6899 1.1164C54.6314 0.643354 54.2589 0.270793 53.7859 0.212303C49.5242 -0.314799 45.1265 0.144666 41.0669 1.54052C37.0069 2.93652 33.256 5.27902 30.2202 8.31481L23.2925 15.2425L13.2925 16.5322C13.0645 16.5616 12.8529 16.6657 12.6903 16.8281L3.04879 26.4697C2.77588 26.7426 2.67664 27.1444 2.79127 27.5131C2.90561 27.8817 3.21511 28.1566 3.5946 28.2269L10.8846 29.5771L12.3171 31.0096L9.26742 32.661C8.97885 32.8172 8.78093 33.1006 8.73367 33.4254C8.6864 33.7501 8.7952 34.0781 9.02722 34.3101L20.5919 45.8747C20.7883 46.0711 21.0533 46.1792 21.327 46.1792C21.3766 46.1792 21.4268 46.1756 21.4767 46.1684C21.8014 46.1212 22.0849 45.9232 22.2411 45.6347L23.8927 42.585L25.3251 44.0175L26.6754 51.3075C26.7458 51.6871 27.0205 51.9965 27.3892 52.111C27.4905 52.1424 27.5943 52.1577 27.6974 52.1577C27.9691 52.1577 28.2346 52.0511 28.4327 51.8532L38.0742 42.2116C38.2367 42.0492 38.3408 41.8374 38.3701 41.6095L39.66 31.6094L46.5877 24.6816C49.6235 21.6458 51.966 17.8951 53.362 13.835C54.7577 9.77539 55.2169 5.37715 54.6899 1.1164ZM11.043 27.4924L5.91631 26.5429L13.9099 18.549L20.886 17.6493L11.043 27.4924ZM21.0765 43.4195L11.4827 33.8258L13.8507 32.5435L22.3587 41.0517L21.0765 43.4195ZM36.3532 40.9923L28.3595 48.986L27.4098 43.8594L37.2529 34.0164L36.3532 40.9923ZM45.1173 23.2118L26.2882 42.0409L12.8614 28.614L31.6904 9.78482C34.4261 7.04896 37.7891 4.92323 41.4323 3.61844C41.9028 6.04285 43.0883 8.29194 44.8493 10.0529C46.6103 11.8139 48.8592 12.9994 51.2838 13.4701C49.9788 17.113 47.853 20.476 45.1173 23.2118ZM51.9096 11.4727C49.8024 11.1133 47.8423 10.1057 46.3193 8.58286C44.7964 7.06005 43.7889 5.09981 43.4295 2.99265C46.4428 2.18058 49.6082 1.90366 52.7144 2.18779C52.9987 5.29399 52.7216 8.45937 51.9096 11.4727Z" fill="#00AEB5"/>
<path d="M30.6761 15.3075C28.2173 17.7665 28.2173 21.7672 30.6761 24.2261C31.9057 25.4557 33.5204 26.0702 35.1355 26.0702C36.7501 26.0702 38.3655 25.4554 39.5947 24.2261H39.5948C42.0536 21.7673 42.0536 17.7665 39.5947 15.3075C37.1358 12.8488 33.1349 12.8489 30.6761 15.3075ZM38.1247 22.756C36.4762 24.4044 33.7942 24.4041 32.1463 22.756C30.4979 21.1077 30.4979 18.4258 32.1463 16.7775C32.9703 15.9534 34.0529 15.5415 35.1353 15.5415C36.218 15.5415 37.3004 15.9536 38.1244 16.7775C39.7728 18.4258 39.7728 21.1077 38.1247 22.756Z" fill="#00AEB5"/>
<path d="M13.6338 41.4648C13.2277 41.0588 12.5696 41.0588 12.1636 41.4648L3.2449 50.3833C2.83894 50.7893 2.83894 51.4475 3.2449 51.8534C3.44795 52.0563 3.71407 52.1579 3.98005 52.1579C4.24602 52.1579 4.51214 52.0564 4.71519 51.8534L13.6338 42.9348C14.0396 42.5289 14.0396 41.8707 13.6338 41.4648Z" fill="#00AEB5"/>
<path d="M15.0055 44.3069L10.9873 48.3251C10.5814 48.7311 10.5814 49.3893 10.9873 49.7951C11.1904 49.998 11.4565 50.0996 11.7225 50.0996C11.9885 50.0996 12.2546 49.9982 12.4576 49.7951L16.4758 45.7769C16.8818 45.371 16.8818 44.7127 16.4758 44.3069C16.0697 43.901 15.4116 43.901 15.0055 44.3069Z" fill="#00AEB5"/>
<path d="M9.5806 50.1626C9.14567 50.1626 8.74872 50.4431 8.6018 50.8519C8.45239 51.2674 8.5914 51.7446 8.93666 52.0183C9.28968 52.2983 9.80514 52.3136 10.1741 52.0551C10.5677 51.7792 10.7274 51.2498 10.5399 50.8043C10.3856 50.4197 9.99308 50.1626 9.5806 50.1626Z" fill="#00AEB5"/>
<path d="M10.54 50.8043C10.5664 50.8668 10.5151 50.7419 10.54 50.8043V50.8043Z" fill="#00AEB5"/>
<path d="M6.64061 52.6721L6.08731 53.2254C5.68121 53.6313 5.68121 54.2896 6.08717 54.6955C6.29022 54.8984 6.5562 55 6.82231 55C7.08829 55 7.3544 54.8986 7.55732 54.6957L8.11062 54.1424C8.51672 53.7364 8.51672 53.0782 8.11075 52.6724C7.70479 52.2665 7.04643 52.2661 6.64061 52.6721Z" fill="#00AEB5"/>
<path d="M5.89096 43.5228C5.48486 43.1168 4.82678 43.1168 4.42081 43.5228L0.402617 47.541C-0.00334644 47.947 -0.00334644 48.6052 0.402617 49.011C0.605669 49.2139 0.871784 49.3155 1.13776 49.3155C1.40374 49.3155 1.66985 49.214 1.8729 49.011L5.8911 44.9928C6.29692 44.587 6.29692 43.9288 5.89096 43.5228Z" fill="#00AEB5"/>
<path d="M7.54993 43.1239C7.9717 43.0179 8.28826 42.6503 8.3322 42.2179C8.37531 41.7945 8.14246 41.3795 7.76449 41.1885C7.36324 40.9856 6.86039 41.0703 6.54909 41.3956C6.21576 41.7439 6.16766 42.2862 6.431 42.6894C6.42269 42.677 6.41631 42.6678 6.43308 42.6934C6.45055 42.7191 6.44459 42.7098 6.43627 42.6975C6.68118 43.0533 7.12817 43.23 7.54993 43.1239Z" fill="#00AEB5"/>
<path d="M10.2382 40.6459L10.7914 40.0926C11.1974 39.6866 11.1974 39.0284 10.7913 38.6226C10.3849 38.2165 9.72665 38.2166 9.32124 38.6227L8.76808 39.176C8.36211 39.582 8.36211 40.2402 8.76822 40.646C8.97127 40.8489 9.23725 40.9504 9.50322 40.9504C9.7692 40.9504 10.0353 40.8489 10.2382 40.6459Z" fill="#00AEB5"/>
</g>
<defs>
<clipPath id="clip0">
<rect width="55" height="55" fill="white"/>
</clipPath>
</defs>
</svg>
